<svg version="1.1" id="Layer_1" xmlns="http://www.w3.org/2000/svg" xmlns:xlink="http://www.w3.org/1999/xlink" x="0px" y="0px"
	 width="100%" viewBox="0 0 1024 1024" enable-background="new 0 0 1024 1024" xml:space="preserve">
<path fill="#00593B" opacity="1.000000" stroke="none" 
	d="
M697.000000,1025.000000 
	C464.666656,1025.000000 232.833328,1025.000000 1.000000,1025.000000 
	C1.000000,683.666687 1.000000,342.333344 1.000000,1.000000 
	C342.333344,1.000000 683.666687,1.000000 1025.000000,1.000000 
	C1025.000000,342.333344 1025.000000,683.666687 1025.000000,1025.000000 
	C915.833313,1025.000000 806.666687,1025.000000 697.000000,1025.000000 
M237.289154,692.283020 
	C237.554321,692.520142 237.819473,692.757202 238.016083,692.988647 
	C238.016083,692.988647 238.036407,692.922974 238.072556,693.495300 
	C238.563751,694.007751 239.054947,694.520264 239.743744,695.670105 
	C239.699371,696.105896 239.654984,696.541687 238.940826,697.338684 
	C238.626495,699.240601 238.045166,701.141602 238.038605,703.044556 
	C237.962830,725.021851 237.974106,746.999390 237.234589,769.033081 
	C236.470490,769.557800 235.768631,770.231873 234.931274,770.580750 
	C231.736847,771.911804 228.586014,773.567566 225.245041,774.246277 
	C223.160721,774.669617 220.764740,773.558594 218.200012,773.181885 
	C218.200012,773.181885 218.002823,772.940125 217.999054,772.195679 
	C217.839615,771.392639 217.844269,770.508728 217.494461,769.799561 
	C214.974136,764.690857 212.210541,759.694824 209.873535,754.505676 
	C208.341324,751.103516 207.455856,747.415344 206.170593,743.895508 
	C203.145706,735.611633 199.896637,727.404907 197.097427,719.046631 
	C196.360703,716.846863 195.819565,715.757568 193.409302,716.476074 
	C193.409302,716.476074 193.404846,716.380798 193.687393,715.617615 
	C192.716690,713.447998 191.745972,711.278320 190.866730,709.122070 
	C190.866730,709.122070 190.832825,709.208069 190.921906,708.348572 
	C189.049332,701.716614 187.472992,694.978821 185.160141,688.504150 
	C184.219193,685.870056 181.870956,682.082336 179.823639,681.853271 
	C175.873444,681.411316 169.820557,681.772644 168.015137,684.255493 
	C165.111420,688.248779 164.946960,694.233826 163.639832,699.455078 
	C163.639832,699.455078 163.615128,699.530212 162.870361,699.630615 
	C162.361694,701.531494 161.853043,703.432312 161.319550,705.214661 
	C161.319550,705.214661 161.438858,705.235413 160.779602,705.476624 
	C159.148422,708.285461 157.086273,710.933350 155.966461,713.933044 
	C152.538712,723.115051 149.356628,732.394592 146.346680,741.722595 
	C145.575851,744.111450 145.793747,746.819214 145.562164,749.439636 
	C145.562164,749.439636 145.549820,749.497620 145.047028,749.474792 
	C144.994720,749.975525 144.942413,750.476318 144.903931,751.563904 
	C144.621658,752.055542 144.339386,752.547119 143.284744,753.064697 
	C141.225128,758.430115 139.165512,763.795532 137.078079,769.082336 
	C137.078079,769.082336 137.160400,769.095825 136.361465,769.038818 
	C132.875519,770.879089 129.284729,772.555115 125.973305,774.668701 
	C125.083633,775.236511 124.309837,777.710022 124.771889,778.301147 
	C125.647095,779.420898 127.452377,780.400330 128.876221,780.407227 
	C136.820419,780.445557 144.767487,780.221802 152.710571,779.986389 
	C155.704636,779.897644 159.857574,781.073486 160.381409,776.827942 
	C160.547348,775.482971 156.755875,773.395813 154.525162,772.068970 
	C151.232544,770.110413 149.062759,768.631958 151.399841,763.963928 
	C153.190918,760.386475 152.954178,755.793823 153.607498,751.889954 
	C153.607498,751.889954 153.596588,751.647888 154.365250,751.748840 
	C162.139313,751.506409 169.915085,751.032166 177.686966,751.088989 
	C184.922653,751.141846 185.980103,752.264282 188.147964,759.486389 
	C188.380417,760.260742 188.824371,760.985718 189.248642,761.686096 
	C192.973114,767.834412 192.075241,769.958374 185.660080,772.480286 
	C183.664902,773.264648 182.332962,775.736145 180.697418,777.435242 
	C182.639954,778.291260 184.557556,779.819885 186.529099,779.892883 
	C198.325424,780.329956 210.133942,780.450134 221.939240,780.610718 
	C222.873718,780.623474 223.812790,780.128723 224.753632,779.884949 
	C226.189819,779.512756 227.629425,779.153748 229.713470,778.906738 
	C230.142212,778.990967 230.570953,779.075195 231.390320,779.692078 
	C231.660522,779.875793 231.926529,780.213501 232.201523,780.220947 
	C241.590424,780.477173 250.979660,780.749207 260.370667,780.852661 
	C261.229126,780.862122 262.099792,779.764038 263.656860,778.967957 
	C266.682770,775.254822 263.104218,775.042480 260.641357,773.503967 
	C259.157440,772.016052 257.673492,770.528076 256.627380,768.332031 
	C256.739502,767.848816 256.949219,767.365662 256.949768,766.882324 
	C256.980316,739.282532 257.013947,711.682739 256.944824,684.083191 
	C256.941559,682.779358 256.010498,681.477966 254.745850,680.078186 
	C246.485626,682.203857 238.225388,684.329590 229.965164,686.455261 
	C229.998566,687.037109 230.031952,687.618958 230.065353,688.200806 
	C231.746506,689.002869 233.427658,689.804932 235.414429,691.192810 
	C236.006058,691.423401 236.597687,691.653992 237.074722,691.908691 
	C237.074722,691.908691 237.064575,691.792053 237.289154,692.283020 
M485.126434,715.154541 
	C485.126434,715.154541 485.235596,715.183350 484.507507,715.113586 
	C483.680634,715.767578 482.853790,716.421570 482.019257,717.008362 
	C482.019257,717.008362 482.081482,717.034790 481.036377,717.129028 
	C480.431854,717.457764 479.827332,717.786499 479.834930,717.769226 
	C479.927917,717.984436 480.020935,718.199585 479.520294,717.704468 
	C478.153564,716.150940 476.786804,714.597351 475.160431,712.459534 
	C475.105835,712.253479 475.051270,712.047485 474.865112,711.261230 
	C474.464172,710.809387 473.951599,709.905640 473.678894,709.973022 
	C469.106171,711.102295 464.504059,712.173828 460.039703,713.653931 
	C457.889496,714.366760 456.011475,715.900574 453.709412,717.279297 
	C453.709412,717.279297 453.358002,717.161316 452.656494,717.233826 
	C450.132751,718.789124 450.460602,719.996643 453.036133,720.977112 
	C453.036133,720.977112 453.060608,720.891052 453.325867,721.521912 
	C459.960327,724.871216 459.870575,730.689087 459.049591,736.850830 
	C458.832336,738.481262 459.079956,740.170837 459.075989,741.833130 
	C459.055969,750.246033 459.358795,758.683472 458.746307,767.053650 
	C458.602936,769.013184 455.344299,770.744751 453.518921,772.581238 
	C451.098175,767.672729 446.840210,769.010681 442.112671,769.949768 
	C441.805450,762.000793 441.554169,754.507080 441.216187,747.017273 
	C440.830231,738.464844 440.419281,729.912170 439.804016,721.375061 
	C439.768158,720.877747 437.806091,720.519104 436.190338,719.671631 
	C435.450562,718.624939 434.925293,717.273438 433.937866,716.578613 
	C423.707855,709.380554 401.421661,712.675903 393.636169,722.549561 
	C390.216797,726.886047 389.071136,731.626831 392.026672,736.958435 
	C395.395996,736.492737 398.659607,736.055115 401.915680,735.567017 
	C402.184265,735.526794 402.595123,735.159180 402.613068,734.919312 
	C402.809784,732.288879 402.720490,729.617676 403.140503,727.027588 
	C403.843689,722.690735 406.343964,719.714661 410.837250,719.056702 
	C415.555695,718.365723 420.279846,718.907043 422.045013,724.073303 
	C423.806091,729.227478 424.586273,734.716675 425.804443,740.094177 
	C413.481903,743.802185 401.559326,744.866394 391.711853,753.085571 
	C390.625153,754.103149 389.362152,754.988525 388.482880,756.161621 
	C385.065918,760.720276 386.662933,765.831238 386.981659,770.827881 
	C387.233124,774.769897 388.937164,776.997253 393.019104,777.005676 
	C393.019104,777.005676 393.031464,776.943665 393.052887,777.686646 
	C394.830261,778.866943 396.564453,780.974731 398.392822,781.059814 
	C404.771423,781.356873 411.197998,781.143738 417.565765,780.625671 
	C418.589661,780.542358 419.406342,777.912354 420.403748,776.335144 
	C420.403748,776.335144 420.553375,776.317627 421.296509,776.591858 
	C423.379364,776.515198 425.462219,776.438477 427.623779,776.433044 
	C427.623779,776.433044 427.648743,776.536255 427.421753,777.267273 
	C429.443726,781.135559 438.467499,783.911743 441.638977,781.556885 
	C441.968781,781.311951 441.752167,780.331238 441.803406,779.783447 
	C441.803406,779.783447 441.713104,779.762634 442.530365,779.882263 
	C446.017273,779.567505 449.504181,779.252686 453.053772,778.925659 
	C453.053772,778.925659 453.076385,778.985352 453.182587,779.601013 
	C453.521332,779.913147 453.854156,780.490906 454.199646,780.498596 
	C463.009705,780.694580 471.821289,780.906372 480.631958,780.881714 
	C481.722229,780.878662 482.808807,779.562683 483.953979,778.942932 
	C483.953979,778.942932 483.858307,778.900513 484.581635,778.769836 
	C486.944092,776.335632 486.540161,774.263611 483.441284,773.138733 
	C479.367493,771.659973 477.928253,768.833984 477.963074,764.706848 
	C478.054321,753.892090 477.956390,743.075806 478.049683,732.261108 
	C478.061646,730.872986 478.310822,728.952759 479.216370,728.196472 
	C483.787567,724.378845 489.497559,725.043274 494.387970,726.481812 
	C496.841553,727.203491 499.525360,731.408875 499.861023,734.299377 
	C501.081757,744.811279 501.507477,755.429016 501.806000,766.018799 
	C501.846527,767.456848 499.749054,769.617310 498.147919,770.322388 
	C492.000305,773.029602 491.205231,775.647644 494.981598,780.401245 
	C502.862335,780.401245 510.263153,780.476868 517.660278,780.346191 
	C519.434937,780.314819 521.197510,779.598206 523.596436,779.029663 
	C524.349548,778.676392 525.102661,778.323120 526.545410,777.893494 
	C527.146729,777.273499 527.747986,776.653442 528.349304,776.033508 
	C527.370667,775.883850 526.392090,775.734192 525.377747,775.524841 
	C525.377747,775.524841 525.344482,775.463867 525.473816,775.184021 
	C525.473816,775.184021 525.339172,774.896851 525.339172,774.896851 
	C525.339172,774.896851 524.984924,775.117310 524.393066,775.062073 
	C523.918762,774.744507 523.444397,774.426941 522.966064,773.333740 
	C519.128174,767.934631 520.017822,761.736145 520.000061,755.697388 
	C519.980530,749.049927 520.406006,742.369385 519.871826,735.765259 
	C519.450012,730.550659 518.045837,725.381165 516.652100,720.308655 
	C516.373718,719.295349 514.169067,718.811279 512.929321,718.066162 
	C512.929321,718.066162 512.918518,718.143982 512.960754,717.338867 
	C512.020264,712.184814 508.059113,713.335327 504.816498,713.333130 
	C504.816498,713.333130 504.792419,713.508118 504.453217,712.801453 
	C498.135803,709.698242 490.633362,710.471008 486.537903,714.675964 
	C486.537903,714.675964 486.454559,714.684753 485.922852,714.609009 
	C485.655670,714.828430 485.388489,715.047852 485.126434,715.154541 
M585.054138,361.930878 
	C585.054138,361.930878 585.124512,361.843140 585.082214,362.564453 
	C585.770386,363.343964 586.458557,364.123444 587.043701,364.930389 
	C587.043701,364.930389 587.116211,364.852234 587.057495,365.638947 
	C587.842102,366.621521 588.626709,367.604095 589.364563,368.687866 
	C589.364563,368.687866 589.464783,368.639038 589.259766,369.439240 
	C589.560974,371.962738 589.366638,374.689301 590.295166,376.955811 
	C591.339111,379.503845 594.110657,381.426117 594.867432,383.993011 
	C596.549500,389.698669 597.266296,395.680542 598.698242,401.470215 
	C601.164246,411.440399 599.829346,421.248047 597.691833,431.004974 
	C597.114197,433.641815 595.653442,436.085205 594.598022,438.617371 
	C594.117371,438.495392 593.636780,438.373413 593.156128,438.251434 
	C593.248108,436.220245 593.377930,434.189911 593.425110,432.157684 
	C593.571594,425.853302 594.706055,419.365143 593.613037,413.279510 
	C590.889221,398.114960 586.256470,383.621307 576.908325,370.814911 
	C569.239197,360.308685 560.490601,351.289551 549.151367,344.910583 
	C547.949341,344.234406 546.301758,344.350281 544.945251,344.051575 
	C544.945251,344.051575 544.909302,344.141235 544.932983,343.403595 
	C543.965149,342.162262 543.213135,340.150513 541.993347,339.808899 
	C535.702332,338.047028 531.256958,333.123840 524.729492,331.094604 
	C517.390930,328.813263 510.372406,324.583588 502.772827,322.076569 
	C497.381195,320.297943 492.426819,317.214264 487.058197,315.341064 
	C478.398376,312.319580 469.604584,309.649811 460.772522,307.169159 
	C456.897430,306.080811 452.788879,305.823822 448.879486,305.112488 
	C448.879486,305.112488 448.844879,305.228180 448.759399,304.501099 
	C448.092163,303.826019 447.542786,302.796356 446.739868,302.529510 
	C436.267059,299.049042 425.804840,295.521729 415.237427,292.347595 
	C410.517700,290.929962 405.568390,290.276550 400.905548,289.114716 
	C400.905548,289.114716 400.758514,289.308899 400.731842,288.574463 
	C399.609863,287.445709 398.689453,285.794128 397.333801,285.271515 
	C387.210358,281.368866 376.954895,277.808044 366.836151,273.893646 
	C361.198883,271.712891 355.645020,269.258514 350.239319,266.555908 
	C346.107880,264.490387 342.267975,261.841705 336.894257,258.607300 
	C334.680389,258.796967 330.793335,258.491028 328.487030,254.074783 
	C328.150208,253.429840 326.756195,253.377106 325.895721,252.959045 
	C320.411621,250.294586 314.814514,247.829361 309.497864,244.862640 
	C303.641479,241.594727 298.165466,237.643051 292.296997,234.399597 
	C288.197113,232.133621 285.877930,233.376892 285.803925,238.005615 
	C285.723236,243.052017 286.637360,248.108902 287.012512,253.169022 
	C288.229492,269.583527 291.908691,285.426605 297.895477,300.748016 
	C299.155212,303.971954 299.861938,307.525024 301.659760,310.404236 
	C306.793304,318.625458 312.070618,326.792725 317.878601,334.541077 
	C320.597900,338.168854 322.285736,343.653290 328.469543,343.537598 
	C328.469543,343.537598 328.509674,343.581177 328.569000,344.071228 
	C328.753265,344.399658 329.031860,344.536804 329.473785,344.521271 
	C329.473785,344.521271 329.516022,344.588165 329.352661,345.317657 
	C331.185944,349.129883 332.311890,353.769806 338.082947,352.915253 
	C338.082947,352.915253 338.130280,352.814758 338.164948,353.541229 
	C340.430481,356.057495 343.042053,358.344543 344.891449,361.136475 
	C349.084015,367.465759 355.837860,368.164185 362.117401,369.861542 
	C362.117401,369.861542 362.215698,369.694214 362.388519,370.427429 
	C364.295441,371.264618 366.202393,372.101837 368.806946,373.057343 
	C372.534546,375.070251 376.262115,377.083130 379.762817,379.798218 
	C378.125153,380.221954 376.487488,380.645660 374.013580,381.027802 
	C372.374359,380.850861 370.685883,380.868408 369.103455,380.467316 
	C350.228943,375.683319 333.449646,366.859100 318.683563,354.177277 
	C316.047333,351.913177 313.350372,349.719788 309.768402,346.732208 
	C325.030212,398.492767 373.385895,437.686859 437.293488,450.872528 
	C414.544128,454.163544 392.664398,450.339478 371.178345,442.545959 
	C403.517792,477.442047 442.544006,497.103455 492.096161,495.334290 
	C490.497711,496.447632 489.914612,496.938873 489.259094,497.297974 
	C462.569336,511.920868 435.959930,526.693604 409.151306,541.095459 
	C385.865662,553.604797 362.250275,565.501526 339.001709,578.077698 
	C331.537415,582.115479 324.777527,587.455444 317.695374,592.199585 
	C342.315399,596.278015 362.198364,607.141785 377.646576,626.324280 
	C379.066132,624.560913 380.243713,623.177856 381.335449,621.730103 
	C400.590546,596.195251 425.845001,579.604126 456.655243,571.411255 
	C477.018097,565.996582 497.838104,563.723938 518.843933,562.994812 
	C538.024109,562.328979 557.052734,560.560730 575.488770,554.876526 
	C611.863586,543.661560 641.169739,523.254883 660.228760,489.508026 
	C673.125854,466.671814 680.044556,442.085480 682.913513,416.204285 
	C683.273682,414.755646 683.936584,413.309021 683.946350,411.857971 
	C684.030640,399.359222 684.028076,386.859467 683.963684,374.360474 
	C683.954529,372.580017 683.475159,370.802032 683.087585,368.191986 
	C683.373169,365.721130 683.585144,363.239136 683.956177,360.781189 
	C686.326294,345.079559 692.093079,331.157501 705.736450,321.001709 
	C707.318237,320.583313 709.192505,320.571991 710.434204,319.680115 
	C718.240295,314.073395 727.274780,311.547272 736.429321,309.889435 
	C742.220825,308.840546 748.335266,309.693542 754.281128,309.317810 
	C756.536682,309.175262 758.725647,307.979370 760.945007,307.263580 
	C759.636169,304.752808 758.952515,301.047882 756.893555,299.969971 
	C752.008118,297.412231 746.484680,296.056183 741.176453,294.346893 
	C740.602234,294.161987 739.748108,294.846497 738.419556,295.080750 
	C737.924438,294.773102 737.429260,294.465454 736.802063,293.461365 
	C732.699768,290.454803 728.467712,287.844666 722.421692,288.958954 
	C721.937500,288.657898 721.453369,288.356812 721.052612,287.411591 
	C720.930115,286.316254 721.150574,285.010284 720.628601,284.160217 
	C717.544312,279.137177 714.442871,274.108826 711.014160,269.320740 
	C709.594971,267.338898 707.427734,265.667908 704.569031,267.440491 
	C704.569031,267.440491 704.531006,267.408264 704.673889,266.672852 
	C701.424072,260.255951 696.084656,257.219757 689.000000,257.000000 
	C689.000000,257.000000 689.008301,256.990143 688.962402,256.250031 
	C688.319031,255.363358 687.820923,253.884079 687.008911,253.685089 
	C681.239197,252.271042 675.445679,250.848206 669.578552,249.972046 
	C665.187317,249.316284 660.674011,249.304504 656.216675,249.327026 
	C653.302673,249.341766 650.352478,249.737457 647.490356,250.317322 
	C644.738647,250.874832 642.010742,251.713715 639.393372,252.737991 
	C633.336365,255.108383 627.278809,257.508514 621.394592,260.266052 
	C620.051147,260.895630 619.408630,263.021027 618.269287,264.323090 
	C618.269287,264.323090 618.399536,264.500854 617.629517,264.289581 
	C611.914795,265.130981 609.232605,267.560394 608.565796,272.570587 
	C608.565796,272.570587 608.445190,272.615662 607.668701,272.338745 
	C602.506470,272.439026 602.038940,276.484680 601.042725,280.053680 
	C601.042725,280.053680 601.144714,280.099487 600.448547,280.154755 
	C597.184814,281.927307 593.181396,282.972900 593.404907,287.985596 
	C593.443237,288.846222 592.722107,289.886902 592.083862,290.606812 
	C588.869507,294.232330 585.530884,297.709320 585.882751,303.162262 
	C585.941528,304.073151 584.530945,304.989227 584.219971,306.028717 
	C582.655090,311.260132 576.707336,314.711060 578.036255,321.036713 
	C578.036255,321.036713 578.127563,321.080750 577.385986,321.135437 
	C575.703003,322.275696 573.902710,323.278473 572.366272,324.590363 
	C570.360779,326.302673 568.761047,328.539124 566.628418,330.041321 
	C563.934814,331.938721 559.956604,338.307739 561.274109,340.312256 
	C563.326782,343.435272 565.990723,346.234314 570.732300,345.363312 
	C570.732300,345.363312 570.797302,345.647614 570.695068,345.935822 
	C570.695068,345.935822 570.917725,346.138580 570.917725,346.138580 
	C570.917725,346.138580 571.172424,345.976379 571.650024,346.125305 
	C571.725952,346.273743 571.801941,346.422180 571.512329,347.312927 
	C570.851379,351.410309 573.763184,350.854126 576.628540,351.055023 
	C576.895447,351.239746 577.035461,351.494263 577.270752,352.317780 
	C577.563049,352.525787 577.855347,352.733826 578.072083,352.952362 
	C578.072083,352.952362 578.080505,352.876526 578.047119,353.674896 
	C578.047119,355.294067 578.047119,356.913239 578.047119,358.929138 
	C579.834534,358.929138 581.464172,358.929138 582.997742,358.972748 
	C582.997742,358.972748 583.078674,358.904724 583.056580,359.616791 
	C583.757568,360.375092 584.458557,361.133392 585.054138,361.930878 
M772.904541,774.913574 
	C772.904541,774.913574 772.824768,774.886353 773.535461,774.808472 
	C774.246216,773.655396 774.957031,772.502258 775.667786,771.349182 
	C774.709717,770.930359 773.751709,770.511536 772.237854,770.129700 
	C771.867432,770.107483 771.497070,770.085266 770.493774,769.806519 
	C769.705811,770.460876 768.917847,771.115234 767.677368,772.031799 
	C767.504639,772.008179 767.331909,771.984619 766.901917,771.144287 
	C765.940613,769.299866 764.166565,767.463074 764.149170,765.609802 
	C764.032166,753.133240 764.222168,740.651917 764.465332,728.175110 
	C764.532532,724.725525 759.051147,713.846436 756.051086,713.408142 
	C748.856201,712.356995 741.583069,711.496887 734.329346,711.391052 
	C731.950134,711.356384 729.533630,713.881409 727.134399,715.134644 
	C727.134399,715.134644 727.233093,715.157410 726.579834,715.171326 
	C726.077515,715.528748 725.575195,715.886230 725.090881,716.115723 
	C725.090881,716.115723 725.215271,716.150757 724.377930,716.071045 
	C720.989014,715.611511 719.154968,716.992310 719.002686,720.856506 
	C718.823608,721.063660 718.600159,721.138550 717.552856,721.058350 
	C713.361572,723.146179 710.390686,732.402710 712.869812,735.944031 
	C713.268982,736.514160 714.290588,736.648560 715.861511,736.976013 
	C717.822083,736.661194 719.784485,736.078247 721.742859,736.091370 
	C725.084717,736.113708 726.776428,735.006531 726.117310,731.406006 
	C725.940430,730.440125 726.041382,729.408508 726.114014,728.414307 
	C726.467285,723.579834 729.875122,719.646179 734.251282,718.974304 
	C740.111450,718.074585 744.227478,720.325500 745.978088,725.697937 
	C746.687622,727.875366 747.011780,730.221497 747.203491,732.516602 
	C747.850220,740.257568 747.648987,739.826965 740.491150,742.268616 
	C732.550232,744.977234 724.494263,747.855652 717.277527,752.025818 
	C711.078491,755.607910 709.100464,763.746704 711.345764,770.205322 
	C713.662659,776.870117 719.217468,779.235229 725.687134,780.040649 
	C734.546143,781.143433 742.395508,779.140991 748.463562,771.860901 
	C751.209229,778.896301 753.765686,780.877441 760.279541,780.077515 
	C763.771729,779.648621 767.111511,777.978821 771.239441,776.812744 
	C771.790039,776.151978 772.340637,775.491211 772.904541,774.913574 
M849.398193,760.547607 
	C849.398193,760.547607 849.373230,760.420837 849.594666,759.640015 
	C848.625671,755.985657 847.811646,752.281067 846.648010,748.689758 
	C845.226501,744.302490 846.986206,742.819336 851.181152,742.976746 
	C861.471680,743.362732 871.764160,743.846863 882.057007,743.874756 
	C883.784302,743.879456 885.953735,742.131897 887.131165,740.591797 
	C888.439453,738.880432 889.806946,736.304504 886.059021,734.340149 
	C886.088745,733.888977 886.118530,733.437805 886.610168,732.491455 
	C888.351929,728.192688 886.151855,723.060181 881.173401,720.765930 
	C872.025391,711.472778 855.549805,709.870056 845.021790,717.696411 
	C832.368896,727.102356 828.704407,740.255615 830.662964,755.310913 
	C832.337524,768.183289 841.100342,777.700500 852.799561,779.778015 
	C866.452515,782.202393 878.882446,776.569214 884.932922,765.054504 
	C885.493530,763.987732 885.157654,762.449829 885.238037,761.130798 
	C883.932556,761.125854 882.627075,761.120911 880.525513,761.089233 
	C878.077393,762.029846 875.671021,763.104187 873.172607,763.883606 
	C867.687073,765.595276 862.259460,767.586121 856.724243,763.549561 
	C854.688354,762.065002 851.933594,761.566162 849.398193,760.547607 
M373.858734,713.403870 
	C366.545258,715.223755 359.230652,717.039246 351.927582,718.899902 
	C351.800812,718.932190 351.812714,719.508606 351.684296,720.292786 
	C352.673187,720.782471 353.731873,721.510376 354.903046,721.847107 
	C358.006561,722.739563 358.930603,724.848206 358.910645,727.862427 
	C358.824646,740.831482 358.808533,753.801331 358.826141,766.770752 
	C358.831604,770.797852 357.749634,773.876953 353.388336,775.151062 
	C352.247681,775.484314 351.438354,776.951599 349.512512,778.847290 
	C361.002716,778.847290 370.861053,778.847290 382.004028,778.847290 
	C380.559662,776.913391 379.714508,775.781738 378.688660,773.907410 
	C377.466461,771.096191 375.206268,768.289429 375.194244,765.473022 
	C375.126984,749.745667 375.651825,734.016541 375.812225,718.286316 
	C375.826691,716.868774 374.688477,715.439514 373.858734,713.403870 
M783.965820,772.346619 
	C781.453979,774.054199 778.942078,775.761780 776.430237,777.469360 
	C776.714966,777.974976 776.999634,778.480652 777.284363,778.986267 
	C786.755493,778.986267 796.227478,779.048462 805.696838,778.918823 
	C807.106018,778.899475 808.502808,777.977112 809.905334,777.472473 
	C808.702454,776.379150 807.666321,774.708679 806.264587,774.303467 
	C802.442017,773.198608 800.137695,771.321228 800.184570,767.032959 
	C800.304504,756.045776 800.222412,745.055786 800.425781,734.070740 
	C800.451416,732.687805 801.349304,730.823975 802.452026,730.044434 
	C807.141418,726.729553 812.181641,725.952271 817.372925,729.113892 
	C818.621094,729.874084 819.891174,730.598145 821.716187,731.670898 
	C823.447632,728.274780 824.786926,725.091309 826.607544,722.212280 
	C829.096008,718.277161 827.320312,715.766174 823.977173,714.208252 
	C818.388672,711.604004 812.931885,712.283447 808.148743,716.323547 
	C805.203979,718.810913 802.441711,721.514404 799.067505,724.606689 
	C799.067505,719.997803 799.067505,716.227173 799.067505,712.184326 
	C792.040405,713.847290 785.279236,715.406067 778.550781,717.095276 
	C777.767822,717.291870 777.166260,718.210754 776.480591,718.794800 
	C777.169006,719.516541 777.727478,720.518738 778.569519,720.909058 
	C781.414001,722.227234 785.504089,722.028992 784.622314,727.471619 
	C784.418030,728.431030 784.036011,729.390442 784.036377,730.349792 
	C784.041992,744.133972 784.099060,757.918213 783.965820,772.346619 
M595.317078,771.548584 
	C593.746887,770.702881 592.144165,769.090881 590.612610,769.155945 
	C586.106750,769.347046 584.876770,767.406250 584.954285,763.209656 
	C585.150330,752.588074 585.215515,741.953979 584.876099,731.339478 
	C584.786316,728.533569 583.039307,725.780762 581.567871,722.523499 
	C579.426331,720.288147 577.675110,717.309448 575.076355,715.944946 
	C563.205627,709.712524 547.098999,712.373657 537.583374,722.802795 
	C533.564758,727.207153 533.287231,731.579285 536.287048,736.915344 
	C539.483643,736.469666 542.738892,736.015808 546.430420,735.501099 
	C546.588928,732.868225 546.678894,730.251648 546.918518,727.648804 
	C547.309143,723.405457 549.577332,720.379089 553.640564,719.290466 
	C557.843140,718.164490 562.902405,718.200928 564.807922,722.368286 
	C567.136902,727.461609 568.226868,733.369263 568.445862,738.979614 
	C568.492126,740.163879 562.457886,741.614014 559.201477,742.880432 
	C558.280762,743.238464 557.210815,743.237366 556.319702,743.643250 
	C550.339722,746.367554 543.910095,748.455322 538.557251,752.112305 
	C532.544800,756.219727 530.585815,764.658264 533.130310,770.921814 
	C535.861389,777.644653 541.701599,779.600586 548.407104,780.086609 
	C556.786377,780.693848 564.125122,778.770386 569.688721,771.463074 
	C571.576904,777.691162 575.233521,780.867432 581.293762,780.196594 
	C586.987671,779.566345 592.364563,778.093079 595.317078,771.548584 
M336.866486,768.872498 
	C336.578094,759.451050 336.003571,750.027771 336.061401,740.608459 
	C336.178497,721.546692 336.673920,702.487305 336.866516,683.425476 
	C336.877686,682.318909 335.579712,681.199036 334.071686,680.005859 
	C327.326935,681.664612 320.563110,683.252014 313.854462,685.045837 
	C312.601196,685.380981 311.569183,686.543701 310.435028,687.324463 
	C311.589630,688.252380 312.715179,689.219666 313.905273,690.099548 
	C315.937622,691.602112 319.632874,692.899719 319.785309,694.546631 
	C320.442566,701.648926 320.066345,708.846863 320.066345,716.266052 
	C302.300171,709.112549 286.660858,713.533508 277.753143,728.371948 
	C270.772125,740.000854 270.681885,752.560303 275.920593,764.755066 
	C280.134064,774.563293 288.305084,779.504700 299.129395,780.068237 
	C307.246185,780.490784 313.822052,777.248535 319.878296,771.873291 
	C320.186127,774.750732 320.453094,777.246216 320.731445,779.848083 
	C327.718292,778.474915 334.053436,777.275696 340.360229,775.942383 
	C341.343384,775.734558 342.197388,774.915894 343.111084,774.379639 
	C342.246368,773.586975 341.443909,772.708740 340.501251,772.023193 
	C339.325531,771.168335 338.034302,770.472290 336.866486,768.872498 
M703.055420,756.725098 
	C703.376404,755.310486 703.697388,753.895935 704.089661,752.167358 
	C701.935791,751.974243 700.197998,751.818420 698.558472,751.671387 
	C697.915833,753.269531 697.463623,754.515625 696.922363,755.721863 
	C688.471558,774.556152 663.455994,778.440735 649.691467,763.062927 
	C637.457031,749.394653 635.158508,719.578552 645.219299,704.286011 
	C650.882935,695.677307 658.540161,690.676453 669.230042,690.642761 
	C681.100220,690.605347 689.378723,696.285400 695.483398,705.966797 
	C697.133850,708.584290 698.697327,711.791748 702.786438,709.314087 
	C702.183960,706.365173 701.013367,703.427856 701.095764,700.526184 
	C701.364136,691.079956 695.840088,687.704163 687.699341,685.333801 
	C654.096924,675.549683 615.916016,695.411926 620.042358,738.130127 
	C621.348511,751.652039 626.925476,763.111328 638.268433,771.109192 
	C654.544006,782.584778 672.267456,781.638550 690.402771,776.798462 
	C695.826599,775.350891 699.521973,772.666504 700.284363,766.603699 
	C700.672791,763.514709 702.014221,760.545532 703.055420,756.725098 
M375.011108,696.416809 
	C376.870697,692.142090 377.349609,687.555420 373.448639,684.607971 
	C370.861694,682.653503 366.836609,681.407227 363.648651,681.733459 
	C359.250031,682.183594 356.415344,685.822205 356.114471,690.396362 
	C355.816010,694.933289 358.041107,698.372620 362.322113,700.192017 
	C367.176147,702.254944 371.370026,701.404785 375.011108,696.416809 
z"/>
<path fill="#FBF9F2" opacity="1.000000" stroke="none" 
	d="
M704.949524,320.981720 
	C692.093079,331.157501 686.326294,345.079559 683.956177,360.781189 
	C683.585144,363.239136 683.373169,365.721130 683.057007,369.066895 
	C682.792542,385.320923 682.558716,400.700043 682.324829,416.079132 
	C680.044556,442.085480 673.125854,466.671814 660.228760,489.508026 
	C641.169739,523.254883 611.863586,543.661560 575.488770,554.876526 
	C557.052734,560.560730 538.024109,562.328979 518.843933,562.994812 
	C497.838104,563.723938 477.018097,565.996582 456.655243,571.411255 
	C425.845001,579.604126 400.590546,596.195251 381.335449,621.730103 
	C380.243713,623.177856 379.066132,624.560913 377.646576,626.324280 
	C362.198364,607.141785 342.315399,596.278015 317.695374,592.199585 
	C324.777527,587.455444 331.537415,582.115479 339.001709,578.077698 
	C362.250275,565.501526 385.865662,553.604797 409.151306,541.095459 
	C435.959930,526.693604 462.569336,511.920868 489.259094,497.297974 
	C489.914612,496.938873 490.497711,496.447632 492.096161,495.334290 
	C442.544006,497.103455 403.517792,477.442047 371.178345,442.545959 
	C392.664398,450.339478 414.544128,454.163544 437.293488,450.872528 
	C373.385895,437.686859 325.030212,398.492767 309.768402,346.732208 
	C313.350372,349.719788 316.047333,351.913177 318.683563,354.177277 
	C333.449646,366.859100 350.228943,375.683319 369.103455,380.467316 
	C370.685883,380.868408 372.374359,380.850861 374.592560,381.400177 
	C380.752899,382.680786 386.334290,383.589020 391.915680,384.497223 
	C392.035126,384.001801 392.154602,383.506378 392.274078,383.010956 
	C388.179291,381.705994 384.084503,380.401031 379.989716,379.096039 
	C376.262115,377.083130 372.534546,375.070251 368.256439,372.726013 
	C365.875854,371.494507 364.045776,370.594360 362.215698,369.694214 
	C362.215698,369.694214 362.117401,369.861542 361.987152,369.524353 
	C353.948029,363.729706 346.039154,358.272217 338.130280,352.814758 
	C338.130280,352.814758 338.082947,352.915253 337.996033,352.579987 
	C335.111420,349.692535 332.313721,347.140350 329.516022,344.588165 
	C329.516022,344.588165 329.473785,344.521271 329.361328,344.290649 
	C329.071960,343.793121 328.825562,343.633514 328.509674,343.581177 
	C328.509674,343.581177 328.469543,343.537598 328.301086,343.222595 
	C299.879791,312.391144 287.212463,276.190582 288.083191,234.218094 
	C289.519714,234.986359 290.224457,235.343521 290.910736,235.733185 
	C308.813080,245.898224 326.275177,256.964325 344.738617,265.979767 
	C362.882996,274.839417 382.043762,281.617432 400.758514,289.308899 
	C400.758514,289.308899 400.905548,289.114716 401.044495,289.469910 
	C417.070557,294.959442 432.957733,300.093811 448.844879,305.228180 
	C448.844879,305.228180 448.879486,305.112488 449.062317,305.434082 
	C481.909729,316.615662 515.029602,326.340851 544.909302,344.141235 
	C544.909302,344.141235 544.945251,344.051575 545.052979,344.381683 
	C584.074402,368.743866 604.744751,417.290070 583.409668,460.735107 
	C583.194031,461.197235 583.217957,461.476837 583.241821,461.756439 
	C583.496216,461.505615 583.750610,461.254791 584.331299,460.910950 
	C607.995117,432.131744 605.507019,395.975525 589.464783,368.639038 
	C589.464783,368.639038 589.364563,368.687866 589.322388,368.323395 
	C588.558899,366.923370 587.837585,365.887787 587.116211,364.852234 
	C587.116211,364.852234 587.043701,364.930389 587.043335,364.604340 
	C586.403503,363.466583 585.764038,362.654846 585.124512,361.843140 
	C585.124512,361.843140 585.054138,361.930878 585.043518,361.604187 
	C584.381470,360.486603 583.730103,359.695648 583.078674,358.904724 
	C583.078674,358.904724 582.997742,358.972748 582.969238,358.626099 
	C581.320679,356.478516 579.700562,354.677521 578.080505,352.876526 
	C578.080505,352.876526 578.072083,352.952362 578.011658,352.686584 
	C577.650330,352.220093 577.349426,352.019348 577.048584,351.818604 
	C577.035461,351.494263 576.895447,351.239746 576.297485,350.686707 
	C574.603577,349.069153 573.240784,347.819885 571.877991,346.570618 
	C571.801941,346.422180 571.725952,346.273743 571.389038,345.958984 
	C571.128052,345.792633 570.797302,345.647614 570.797302,345.647614 
	C570.797302,345.647614 570.732300,345.363312 570.384644,345.083313 
	C567.576355,342.906738 565.115784,341.010162 563.260498,339.580200 
	C568.301025,333.308167 573.214294,327.194458 578.127563,321.080750 
	C578.127563,321.080750 578.036255,321.036713 578.365662,320.916504 
	C586.178284,307.230713 593.661499,293.665100 601.144714,280.099487 
	C601.144714,280.099487 601.042725,280.053680 601.375183,279.948853 
	C603.953491,277.434570 606.199341,275.025116 608.445190,272.615662 
	C608.445190,272.615662 608.565796,272.570587 608.853760,272.324768 
	C612.227661,269.552917 615.313599,267.026886 618.399536,264.500854 
	C618.399536,264.500854 618.269287,264.323090 618.687927,264.286194 
	C622.104980,262.503540 625.012939,260.574554 628.116577,259.041809 
	C648.086853,249.179291 668.391541,248.186508 689.008301,256.990143 
	C689.008301,256.990143 689.000000,257.000000 689.215332,257.263184 
	C694.464050,260.820312 699.497559,264.114288 704.531006,267.408264 
	C704.531006,267.408264 704.569031,267.440491 704.750000,267.742126 
	C707.495605,270.865143 710.219360,273.560181 712.584534,276.539856 
	C715.533936,280.255798 718.187744,284.206421 720.969177,288.055725 
	C721.453369,288.356812 721.937500,288.657898 723.010376,289.162415 
	C728.044067,290.963196 732.489136,292.560486 736.934143,294.157806 
	C737.429260,294.465454 737.924438,294.773102 738.938965,295.365112 
	C745.999512,298.994232 752.540710,302.338989 759.081848,305.683746 
	C758.942383,306.092072 758.802856,306.500366 758.663391,306.908691 
	C753.773926,306.908691 748.869324,306.659210 743.997925,306.955658 
	C729.646240,307.829102 716.250244,311.533997 704.949524,320.981720 
M676.291870,282.787170 
	C668.848083,280.658264 662.714600,283.599396 660.831177,290.200958 
	C658.984436,296.673584 662.430542,302.911804 668.804138,304.633789 
	C673.886780,306.006958 679.142700,303.498688 681.643433,298.506500 
	C684.629944,292.544495 683.150513,287.570435 676.291870,282.787170 
z"/>
<path fill="#F4F6EF" opacity="1.000000" stroke="none" 
	d="
M336.792969,769.707642 
	C338.034302,770.472290 339.325531,771.168335 340.501251,772.023193 
	C341.443909,772.708740 342.246368,773.586975 343.111084,774.379639 
	C342.197388,774.915894 341.343384,775.734558 340.360229,775.942383 
	C334.053436,777.275696 327.718292,778.474915 320.731445,779.848083 
	C320.453094,777.246216 320.186127,774.750732 319.878296,771.873291 
	C313.822052,777.248535 307.246185,780.490784 299.129395,780.068237 
	C288.305084,779.504700 280.134064,774.563293 275.920593,764.755066 
	C270.681885,752.560303 270.772125,740.000854 277.753143,728.371948 
	C286.660858,713.533508 302.300171,709.112549 320.066345,716.266052 
	C320.066345,708.846863 320.442566,701.648926 319.785309,694.546631 
	C319.632874,692.899719 315.937622,691.602112 313.905273,690.099548 
	C312.715179,689.219666 311.589630,688.252380 310.435028,687.324463 
	C311.569183,686.543701 312.601196,685.380981 313.854462,685.045837 
	C320.563110,683.252014 327.326935,681.664612 334.504761,680.506348 
	C334.950470,708.713745 334.928223,736.420898 335.053741,764.127258 
	C335.062164,765.989990 336.187225,767.847656 336.792969,769.707642 
M319.910126,727.335510 
	C316.308014,721.017212 310.627533,719.256775 303.792938,719.908752 
	C297.302063,720.527832 292.922424,724.078308 290.798126,730.002014 
	C287.171631,740.114502 287.322266,750.388184 292.150208,760.008118 
	C297.838776,771.342834 311.724762,773.112061 320.112030,763.105957 
	C320.039490,751.413574 319.966949,739.721252 319.910126,727.335510 
z"/>
<path fill="#F2F6EE" opacity="1.000000" stroke="none" 
	d="
M218.002838,772.940125 
	C218.002823,772.940125 218.200012,773.181885 218.618958,773.432373 
	C221.594894,774.381653 224.321304,774.936462 223.422379,778.728027 
	C210.198792,778.728027 197.112686,778.728027 184.119339,778.728027 
	C182.963776,775.447571 184.219055,774.422180 187.231140,773.960327 
	C194.075546,772.911072 195.022171,771.087646 192.689453,764.529419 
	C191.244873,760.468201 189.885910,756.362732 188.144974,752.429199 
	C187.629517,751.264526 185.964142,749.879211 184.793701,749.849304 
	C175.320694,749.607544 165.839401,749.608643 156.362762,749.719238 
	C155.433304,749.730164 154.518295,750.975525 153.596588,751.647888 
	C153.596588,751.647888 153.607498,751.889954 153.371094,752.044067 
	C151.774078,756.096741 150.309494,759.962708 149.075668,763.901001 
	C146.863922,770.960632 147.524796,772.187927 154.614868,774.067383 
	C157.252869,774.766724 158.815735,775.748169 157.314240,778.952087 
	C152.457520,778.952087 147.661636,778.952148 142.865738,778.952148 
	C137.947479,778.952148 133.029221,778.952087 128.374069,778.952087 
	C127.182938,775.367004 128.457672,774.074402 131.391129,773.110840 
	C133.523743,772.410278 135.251907,770.478577 137.160400,769.095825 
	C137.160400,769.095825 137.078079,769.082336 137.404221,768.957031 
	C139.839294,763.567444 141.948212,758.303101 144.057114,753.038757 
	C144.339386,752.547119 144.621658,752.055542 145.061935,751.050781 
	C145.329895,750.191040 145.439850,749.844299 145.549805,749.497620 
	C145.549820,749.497620 145.562164,749.439636 145.754364,749.114990 
	C151.110657,734.272095 156.274765,719.753723 161.438858,705.235413 
	C161.438858,705.235413 161.319550,705.214661 161.587936,705.030823 
	C162.442581,703.074707 163.028854,701.302490 163.615112,699.530212 
	C163.615128,699.530212 163.639832,699.455078 163.819717,699.115234 
	C165.306961,695.192139 166.747452,691.650818 167.891205,688.016174 
	C169.711594,682.231201 174.995117,684.314453 178.799454,683.354736 
	C179.609970,683.150269 181.645096,685.810608 182.338226,687.475098 
	C185.327530,694.653748 188.027527,701.952820 190.832825,709.208069 
	C190.832825,709.208069 190.866730,709.122070 190.859375,709.477661 
	C191.702972,712.015747 192.553909,714.198242 193.404846,716.380798 
	C193.404846,716.380798 193.409302,716.476074 193.537231,716.864319 
	C199.564835,733.101624 205.297684,749.016541 211.506531,764.743591 
	C212.731735,767.846924 215.789963,770.226685 218.002838,772.940125 
M184.201141,740.054138 
	C179.786377,727.524780 175.371597,714.995422 170.956833,702.466064 
	C170.610565,702.477234 170.264297,702.488342 169.918045,702.499512 
	C165.667709,714.995728 161.417389,727.491943 156.888931,740.880920 
	C157.251602,741.323425 157.610931,742.149109 157.977448,742.152283 
	C166.445480,742.226257 174.914444,742.225403 183.382492,742.152771 
	C183.687256,742.150208 183.984558,741.275452 184.201141,740.054138 
z"/>
<path fill="#F3F7EF" opacity="1.000000" stroke="none" 
	d="
M702.990112,757.123657 
	C702.014221,760.545532 700.672791,763.514709 700.284363,766.603699 
	C699.521973,772.666504 695.826599,775.350891 690.402771,776.798462 
	C672.267456,781.638550 654.544006,782.584778 638.268433,771.109192 
	C626.925476,763.111328 621.348511,751.652039 620.042358,738.130127 
	C615.916016,695.411926 654.096924,675.549683 687.699341,685.333801 
	C695.840088,687.704163 701.364136,691.079956 701.095764,700.526184 
	C701.013367,703.427856 702.183960,706.365173 702.786438,709.314087 
	C698.697327,711.791748 697.133850,708.584290 695.483398,705.966797 
	C689.378723,696.285400 681.100220,690.605347 669.230042,690.642761 
	C658.540161,690.676453 650.882935,695.677307 645.219299,704.286011 
	C635.158508,719.578552 637.457031,749.394653 649.691467,763.062927 
	C663.455994,778.440735 688.471558,774.556152 696.922363,755.721863 
	C697.463623,754.515625 697.915833,753.269531 698.558472,751.671387 
	C700.197998,751.818420 701.935791,751.974243 704.089661,752.167358 
	C703.697388,753.895935 703.376404,755.310486 702.990112,757.123657 
z"/>
<path fill="#F5F7F0" opacity="1.000000" stroke="none" 
	d="
M453.358002,717.161316 
	C453.358002,717.161316 453.709412,717.279297 454.265076,717.203857 
	C461.546051,715.366150 468.271393,713.603882 474.996704,711.841553 
	C475.051270,712.047485 475.105835,712.253479 475.200378,713.187256 
	C475.240295,716.552734 475.240295,719.190613 475.240295,722.598999 
	C477.266174,720.859680 478.690063,719.637146 480.113922,718.414673 
	C480.020935,718.199585 479.927917,717.984436 479.763184,718.186523 
	C480.488129,718.080811 481.284790,717.557800 482.081482,717.034790 
	C482.081482,717.034790 482.019257,717.008362 482.336975,716.981201 
	C483.514984,716.363831 484.375305,715.773621 485.235596,715.183350 
	C485.235596,715.183350 485.126434,715.154541 485.369141,715.172852 
	C485.944427,715.108337 486.225311,714.939514 486.454559,714.684753 
	C486.454559,714.684753 486.537903,714.675964 486.949585,714.521545 
	C493.171661,714.080811 498.982025,713.794495 504.792419,713.508118 
	C504.792419,713.508118 504.816498,713.333130 504.987732,713.575928 
	C507.745483,715.260498 510.332001,716.702271 512.918518,718.143982 
	C512.918518,718.143982 512.929321,718.066162 513.016479,718.404236 
	C517.540466,724.057983 518.340637,730.421753 518.340149,737.004944 
	C518.339355,746.986694 518.346497,756.968628 518.280518,766.950012 
	C518.257446,770.441589 519.160889,773.192444 522.970032,774.109436 
	C523.444397,774.426941 523.918762,774.744507 524.729370,775.227661 
	C525.065613,775.393250 525.344482,775.463867 525.344482,775.463867 
	C525.344482,775.463867 525.377747,775.524841 525.434937,775.856934 
	C525.613342,776.782654 525.734558,777.376282 525.855774,777.969849 
	C525.102661,778.323120 524.349548,778.676392 522.820984,779.036011 
	C513.118469,779.042297 504.191467,779.042297 495.264435,779.042297 
	C495.014221,778.557129 494.764038,778.071899 494.513824,777.586731 
	C495.634216,776.640015 496.822021,775.761169 497.859833,774.731201 
	C499.614136,772.990417 502.723724,771.166260 502.738922,769.355835 
	C502.842041,757.075562 502.487579,744.778992 501.837952,732.511169 
	C501.580811,727.655579 498.161743,724.689636 493.374268,724.101868 
	C489.962250,723.682922 486.395691,723.643494 483.003357,724.145691 
	C477.647980,724.938477 475.894073,727.400330 475.881561,732.944458 
	C475.856049,744.253174 475.969604,755.563599 475.791901,766.869629 
	C475.725861,771.071167 477.053162,773.710571 481.239349,775.085876 
	C482.404297,775.468689 483.000946,777.581421 483.858337,778.900513 
	C483.858307,778.900513 483.953979,778.942932 483.467377,778.956299 
	C473.012634,778.974915 463.044525,778.980103 453.076385,778.985352 
	C453.076385,778.985352 453.053772,778.925659 452.969238,778.538452 
	C453.568481,777.079590 454.068939,775.283264 454.966431,775.056213 
	C460.061035,773.767395 461.071320,770.345825 461.000580,765.673645 
	C460.822327,753.901306 460.942871,742.124390 460.948181,730.349304 
	C460.951355,723.267273 460.452545,722.664551 453.060608,720.891052 
	C453.060608,720.891052 453.036133,720.977112 452.955811,720.573486 
	C453.036316,719.167053 453.197174,718.164185 453.358002,717.161316 
z"/>
<path fill="#F2F6EE" opacity="1.000000" stroke="none" 
	d="
M770.520020,776.868896 
	C767.111511,777.978821 763.771729,779.648621 760.279541,780.077515 
	C753.765686,780.877441 751.209229,778.896301 748.463562,771.860901 
	C742.395508,779.140991 734.546143,781.143433 725.687134,780.040649 
	C719.217468,779.235229 713.662659,776.870117 711.345764,770.205322 
	C709.100464,763.746704 711.078491,755.607910 717.277527,752.025818 
	C724.494263,747.855652 732.550232,744.977234 740.491150,742.268616 
	C747.648987,739.826965 747.850220,740.257568 747.203491,732.516602 
	C747.011780,730.221497 746.687622,727.875366 745.978088,725.697937 
	C744.227478,720.325500 740.111450,718.074585 734.251282,718.974304 
	C729.875122,719.646179 726.467285,723.579834 726.114014,728.414307 
	C726.041382,729.408508 725.940430,730.440125 726.117310,731.406006 
	C726.776428,735.006531 725.084717,736.113708 721.742859,736.091370 
	C719.784485,736.078247 717.822083,736.661194 715.255981,736.615295 
	C712.148315,730.291809 714.762085,725.570496 718.332397,721.081299 
	C718.600159,721.138550 718.823608,721.063660 719.368042,720.514221 
	C721.560669,718.831543 723.387939,717.491150 725.215271,716.150757 
	C725.215271,716.150757 725.090881,716.115723 725.394653,716.128540 
	C726.209961,715.813293 726.721497,715.485352 727.233032,715.157349 
	C727.233093,715.157410 727.134399,715.134644 727.525574,715.131836 
	C729.173950,714.721741 730.405334,714.186951 731.692200,713.926697 
	C748.127502,710.602966 763.968811,714.083191 762.894714,736.259460 
	C762.397766,746.518799 762.831238,756.824219 762.888611,767.108521 
	C762.904114,769.894043 763.048706,772.711853 767.159180,771.960999 
	C767.331909,771.984619 767.504639,772.008179 768.257202,771.845520 
	C769.600159,771.127197 770.363403,770.595154 771.126648,770.063110 
	C771.497070,770.085266 771.867432,770.107483 772.683716,770.427917 
	C773.027954,772.112854 772.926331,773.499634 772.824768,774.886353 
	C772.824768,774.886353 772.904541,774.913574 772.592896,774.973877 
	C771.694214,775.645752 771.107117,776.257324 770.520020,776.868896 
M728.003235,753.577393 
	C724.372498,757.327576 724.011963,761.609192 726.685425,765.854553 
	C729.656372,770.572449 734.364929,771.089783 739.439209,770.138611 
	C743.386902,769.398682 747.366638,768.047546 747.820618,763.643982 
	C748.419800,757.831543 747.968018,751.910767 747.968018,744.471863 
	C740.780273,747.643860 734.653503,750.347717 728.003235,753.577393 
z"/>
<path fill="#F2F6EE" opacity="1.000000" stroke="none" 
	d="
M594.846497,772.002563 
	C592.364563,778.093079 586.987671,779.566345 581.293762,780.196594 
	C575.233521,780.867432 571.576904,777.691162 569.688721,771.463074 
	C564.125122,778.770386 556.786377,780.693848 548.407104,780.086609 
	C541.701599,779.600586 535.861389,777.644653 533.130310,770.921814 
	C530.585815,764.658264 532.544800,756.219727 538.557251,752.112305 
	C543.910095,748.455322 550.339722,746.367554 556.319702,743.643250 
	C557.210815,743.237366 558.280762,743.238464 559.201477,742.880432 
	C562.457886,741.614014 568.492126,740.163879 568.445862,738.979614 
	C568.226868,733.369263 567.136902,727.461609 564.807922,722.368286 
	C562.902405,718.200928 557.843140,718.164490 553.640564,719.290466 
	C549.577332,720.379089 547.309143,723.405457 546.918518,727.648804 
	C546.678894,730.251648 546.588928,732.868225 546.430420,735.501099 
	C542.738892,736.015808 539.483643,736.469666 536.287048,736.915344 
	C533.287231,731.579285 533.564758,727.207153 537.583374,722.802795 
	C547.098999,712.373657 563.205627,709.712524 575.076355,715.944946 
	C577.675110,717.309448 579.426331,720.288147 581.822510,723.158447 
	C582.678223,727.520996 583.706116,731.237854 583.799011,734.978027 
	C584.061951,745.562439 583.905762,756.156555 583.987671,766.746277 
	C584.029419,772.144836 585.261597,772.836182 590.193237,771.222290 
	C591.517395,770.788940 593.283325,771.705627 594.846497,772.002563 
M561.777283,769.923279 
	C564.174316,767.671265 568.143433,765.719849 568.643372,763.105103 
	C569.707153,757.541138 568.968384,751.632507 568.968384,744.451538 
	C562.150146,747.468323 555.821655,749.547668 550.285583,752.925720 
	C545.012756,756.143127 544.750366,763.043762 548.865295,767.175476 
	C552.255493,770.579407 556.519348,770.767944 561.777283,769.923279 
z"/>
<path fill="#F2F6EE" opacity="1.000000" stroke="none" 
	d="
M392.512848,753.116394 
	C401.559326,744.866394 413.481903,743.802185 425.804443,740.094177 
	C424.586273,734.716675 423.806091,729.227478 422.045013,724.073303 
	C420.279846,718.907043 415.555695,718.365723 410.837250,719.056702 
	C406.343964,719.714661 403.843689,722.690735 403.140503,727.027588 
	C402.720490,729.617676 402.809784,732.288879 402.613068,734.919312 
	C402.595123,735.159180 402.184265,735.526794 401.915680,735.567017 
	C398.659607,736.055115 395.395996,736.492737 392.026672,736.958435 
	C389.071136,731.626831 390.216797,726.886047 393.636169,722.549561 
	C401.421661,712.675903 423.707855,709.380554 433.937866,716.578613 
	C434.925293,717.273438 435.450562,718.624939 436.565765,720.250732 
	C437.920532,725.996826 439.510529,731.135864 439.749176,736.336914 
	C440.214233,746.471680 439.886566,756.641418 439.958557,766.796204 
	C439.998047,772.369385 440.997742,772.898560 446.033051,771.062134 
	C447.384399,770.569336 449.183319,771.303772 450.776764,771.474854 
	C450.846222,772.128357 450.915649,772.781921 450.985107,773.435425 
	C447.894440,775.544495 444.803772,777.653564 441.713135,779.762695 
	C441.713104,779.762634 441.803406,779.783447 441.358826,779.797974 
	C436.002960,780.702271 431.253754,780.935730 427.648743,776.536255 
	C427.648743,776.536255 427.623779,776.433044 427.455933,776.080811 
	C426.707581,774.473694 426.127075,773.218811 425.520233,771.907043 
	C423.740021,773.487854 422.146698,774.902771 420.553406,776.317627 
	C420.553375,776.317627 420.403748,776.335144 420.044159,776.547729 
	C410.832672,781.541870 401.945007,781.125793 393.031464,776.943665 
	C393.031464,776.943665 393.019104,777.005676 392.868774,776.685547 
	C386.055420,769.712402 385.993591,762.719177 392.512848,753.116394 
M406.233490,752.753235 
	C405.986938,753.027466 405.740356,753.301697 405.809082,753.542175 
	C405.809082,753.542175 405.486725,753.555237 404.963898,754.005676 
	C400.946289,759.692322 401.229767,763.543335 406.340546,768.601624 
	C411.349670,771.406006 416.260620,771.170410 421.798676,767.957275 
	C422.881653,766.391296 424.789276,764.880615 424.898682,763.249329 
	C425.282654,757.524597 425.047699,751.758301 425.047699,745.219482 
	C420.167114,746.928833 415.985443,748.393372 411.902771,749.898865 
	C411.902771,749.898865 411.928345,749.794861 411.306183,749.846375 
	C410.798706,750.179199 410.291260,750.512085 409.864441,750.871521 
	C409.864441,750.871521 409.869568,750.786743 409.233612,750.869141 
	C408.377869,751.475037 407.522125,752.080933 406.775146,752.731445 
	C406.775146,752.731445 406.778931,752.613953 406.233490,752.753235 
z"/>
<path fill="#F3F6EF" opacity="1.000000" stroke="none" 
	d="
M881.321594,761.115967 
	C882.627075,761.120911 883.932556,761.125854 885.238037,761.130737 
	C885.157654,762.449829 885.493530,763.987732 884.932922,765.054504 
	C878.882446,776.569214 866.452515,782.202393 852.799561,779.778015 
	C841.100342,777.700500 832.337524,768.183289 830.662964,755.310913 
	C828.704407,740.255615 832.368896,727.102356 845.021790,717.696411 
	C855.549805,709.870056 872.025391,711.472778 881.547363,721.292358 
	C883.330261,725.541443 884.739258,729.264038 886.148254,732.986633 
	C886.118530,733.437805 886.088745,733.888977 886.046997,735.113403 
	C886.035034,737.820190 886.035034,739.753784 886.035034,741.570374 
	C871.897339,741.570374 858.336121,741.570374 844.776855,741.570374 
	C844.102173,747.674683 845.728699,754.333008 849.373230,760.420837 
	C849.373230,760.420837 849.398193,760.547607 849.603882,760.873901 
	C858.196594,770.710022 871.695923,770.673950 881.321594,761.115967 
M867.035461,722.370056 
	C862.890259,718.908752 858.324280,718.392944 853.668457,720.984802 
	C848.005676,724.137390 845.429321,729.293701 844.822815,735.650269 
	C854.298645,735.650269 863.511475,735.650269 874.592834,735.650269 
	C871.861938,730.693054 869.714050,726.794067 867.035461,722.370056 
z"/>
<path fill="#F3F4ED" opacity="1.000000" stroke="none" 
	d="
M235.108826,690.606934 
	C233.427658,689.804932 231.746506,689.002869 230.065353,688.200806 
	C230.031952,687.618958 229.998566,687.037109 229.965164,686.455261 
	C238.225388,684.329590 246.485626,682.203857 255.151703,680.579590 
	C255.598663,708.106506 255.627731,735.132080 255.702484,762.157471 
	C255.708817,764.452087 256.020020,766.745972 256.189575,769.040161 
	C257.673492,770.528076 259.157440,772.016052 260.739014,774.111267 
	C258.595337,775.810547 256.412445,777.668335 254.101303,777.844543 
	C248.202103,778.294434 242.245239,778.033569 236.312637,777.960449 
	C235.151642,777.946106 233.996002,777.496826 232.606979,777.198608 
	C234.391739,773.923157 240.676163,775.549316 239.046600,769.752380 
	C239.097244,769.512146 239.060135,769.022461 239.222656,768.976501 
	C239.385178,768.930542 239.722229,768.907654 240.038300,768.637329 
	C240.564728,767.579529 240.957581,766.792358 240.958862,766.004578 
	C240.996338,743.235413 241.012421,720.466064 240.949951,697.697021 
	C240.946625,696.481628 240.228439,695.268127 239.604431,693.924927 
	C238.922668,693.505005 238.479538,693.213989 238.036407,692.922974 
	C238.036407,692.922974 238.016083,692.988647 237.974380,692.716919 
	C237.643311,692.227478 237.353928,692.009766 237.064575,691.792053 
	C237.064575,691.792053 237.074722,691.908691 236.979813,691.612427 
	C236.292877,691.079773 235.700851,690.843384 235.108826,690.606934 
z"/>
<path fill="#F2F6EE" opacity="1.000000" stroke="none" 
	d="
M785.216187,726.838135 
	C785.504089,722.028992 781.414001,722.227234 778.569519,720.909058 
	C777.727478,720.518738 777.169006,719.516541 776.480591,718.794800 
	C777.166260,718.210754 777.767822,717.291870 778.550781,717.095276 
	C785.279236,715.406067 792.040405,713.847290 799.067505,712.184326 
	C799.067505,716.227173 799.067505,719.997803 799.067505,724.606689 
	C802.441711,721.514404 805.203979,718.810913 808.148743,716.323547 
	C812.931885,712.283447 818.388672,711.604004 823.977173,714.208252 
	C827.320312,715.766174 829.096008,718.277161 826.607544,722.212280 
	C824.786926,725.091309 823.447632,728.274780 821.716187,731.670898 
	C819.891174,730.598145 818.621094,729.874084 817.372925,729.113892 
	C812.181641,725.952271 807.141418,726.729553 802.452026,730.044434 
	C801.349304,730.823975 800.451416,732.687805 800.425781,734.070740 
	C800.222412,745.055786 800.304504,756.045776 800.184570,767.032959 
	C800.137695,771.321228 802.442017,773.198608 806.264587,774.303467 
	C807.666321,774.708679 808.702454,776.379150 809.905334,777.472473 
	C808.502808,777.977112 807.106018,778.899475 805.696838,778.918823 
	C796.227478,779.048462 786.755493,778.986267 777.284363,778.986267 
	C776.999634,778.480652 776.714966,777.974976 776.430237,777.469360 
	C778.942078,775.761780 781.453979,774.054199 784.376465,771.676636 
	C784.930115,756.283813 785.073181,741.560974 785.216187,726.838135 
z"/>
<path fill="#F5F7F0" opacity="1.000000" stroke="none" 
	d="
M378.869354,774.650146 
	C379.714508,775.781738 380.559662,776.913391 382.004028,778.847290 
	C370.861053,778.847290 361.002716,778.847290 349.512512,778.847290 
	C351.438354,776.951599 352.247681,775.484314 353.388336,775.151062 
	C357.749634,773.876953 358.831604,770.797852 358.826141,766.770752 
	C358.808533,753.801331 358.824646,740.831482 358.910645,727.862427 
	C358.930603,724.848206 358.006561,722.739563 354.903046,721.847107 
	C353.731873,721.510376 352.673187,720.782471 351.684296,720.292786 
	C351.812714,719.508606 351.800812,718.932190 351.927582,718.899902 
	C359.230652,717.039246 366.545258,715.223755 373.880859,714.169434 
	C373.882690,732.463196 373.944153,749.992065 373.778931,767.518799 
	C373.742249,771.411011 375.020325,773.805420 378.869354,774.650146 
z"/>
<path fill="#1F543D" opacity="1.000000" stroke="none" 
	d="
M400.745178,288.941681 
	C382.043762,281.617432 362.882996,274.839417 344.738617,265.979767 
	C326.275177,256.964325 308.813080,245.898224 290.910736,235.733185 
	C290.224457,235.343521 289.519714,234.986359 288.083191,234.218094 
	C287.212463,276.190582 299.879791,312.391144 328.278839,343.203064 
	C322.285736,343.653290 320.597900,338.168854 317.878601,334.541077 
	C312.070618,326.792725 306.793304,318.625458 301.659760,310.404236 
	C299.861938,307.525024 299.155212,303.971954 297.895477,300.748016 
	C291.908691,285.426605 288.229492,269.583527 287.012512,253.169022 
	C286.637360,248.108902 285.723236,243.052017 285.803925,238.005615 
	C285.877930,233.376892 288.197113,232.133621 292.296997,234.399597 
	C298.165466,237.643051 303.641479,241.594727 309.497864,244.862640 
	C314.814514,247.829361 320.411621,250.294586 325.895721,252.959045 
	C326.756195,253.377106 328.150208,253.429840 328.487030,254.074783 
	C330.793335,258.491028 334.680389,258.796967 336.894257,258.607300 
	C342.267975,261.841705 346.107880,264.490387 350.239319,266.555908 
	C355.645020,269.258514 361.198883,271.712891 366.836151,273.893646 
	C376.954895,277.808044 387.210358,281.368866 397.333801,285.271515 
	C398.689453,285.794128 399.609863,287.445709 400.745178,288.941681 
z"/>
<path fill="#1F543D" opacity="1.000000" stroke="none" 
	d="
M583.649231,460.552551 
	C604.744751,417.290070 584.074402,368.743866 545.010742,344.405212 
	C546.301758,344.350281 547.949341,344.234406 549.151367,344.910583 
	C560.490601,351.289551 569.239197,360.308685 576.908325,370.814911 
	C586.256470,383.621307 590.889221,398.114960 593.613037,413.279510 
	C594.706055,419.365143 593.571594,425.853302 593.425110,432.157684 
	C593.377930,434.189911 593.248108,436.220245 593.156128,438.251434 
	C593.636780,438.373413 594.117371,438.495392 594.598022,438.617371 
	C595.653442,436.085205 597.114197,433.641815 597.691833,431.004974 
	C599.829346,421.248047 601.164246,411.440399 598.698242,401.470215 
	C597.266296,395.680542 596.549500,389.698669 594.867432,383.993011 
	C594.110657,381.426117 591.339111,379.503845 590.295166,376.955811 
	C589.366638,374.689301 589.560974,371.962738 589.362305,369.039124 
	C605.507019,395.975525 607.995117,432.131744 584.242004,460.798401 
	C583.826477,460.778809 583.649231,460.552551 583.649231,460.552551 
z"/>
<path fill="#F2F6EE" opacity="1.000000" stroke="none" 
	d="
M374.828735,696.746765 
	C371.370026,701.404785 367.176147,702.254944 362.322113,700.192017 
	C358.041107,698.372620 355.816010,694.933289 356.114471,690.396362 
	C356.415344,685.822205 359.250031,682.183594 363.648651,681.733459 
	C366.836609,681.407227 370.861694,682.653503 373.448639,684.607971 
	C377.349609,687.555420 376.870697,692.142090 374.828735,696.746765 
z"/>
<path fill="#124832" opacity="1.000000" stroke="none" 
	d="
M484.219971,778.835205 
	C483.000946,777.581421 482.404297,775.468689 481.239349,775.085876 
	C477.053162,773.710571 475.725861,771.071167 475.791901,766.869629 
	C475.969604,755.563599 475.856049,744.253174 475.881561,732.944458 
	C475.894073,727.400330 477.647980,724.938477 483.003357,724.145691 
	C486.395691,723.643494 489.962250,723.682922 493.374268,724.101868 
	C498.161743,724.689636 501.580811,727.655579 501.837952,732.511169 
	C502.487579,744.778992 502.842041,757.075562 502.738922,769.355835 
	C502.723724,771.166260 499.614136,772.990417 497.859833,774.731201 
	C496.822021,775.761169 495.634216,776.640015 494.513824,777.586731 
	C494.764038,778.071899 495.014221,778.557129 495.264435,779.042297 
	C504.191467,779.042297 513.118469,779.042297 522.505615,779.119507 
	C521.197510,779.598206 519.434937,780.314819 517.660278,780.346191 
	C510.263153,780.476868 502.862335,780.401245 494.981598,780.401245 
	C491.205231,775.647644 492.000305,773.029602 498.147919,770.322388 
	C499.749054,769.617310 501.846527,767.456848 501.806000,766.018799 
	C501.507477,755.429016 501.081757,744.811279 499.861023,734.299377 
	C499.525360,731.408875 496.841553,727.203491 494.387970,726.481812 
	C489.497559,725.043274 483.787567,724.378845 479.216370,728.196472 
	C478.310822,728.952759 478.061646,730.872986 478.049683,732.261108 
	C477.956390,743.075806 478.054321,753.892090 477.963074,764.706848 
	C477.928253,768.833984 479.367493,771.659973 483.441284,773.138733 
	C486.540161,774.263611 486.944092,776.335632 484.219971,778.835205 
z"/>
<path fill="#0A422A" opacity="1.000000" stroke="none" 
	d="
M442.121765,779.822510 
	C444.803772,777.653564 447.894440,775.544495 450.985107,773.435425 
	C450.915649,772.781921 450.846222,772.128357 450.776764,771.474854 
	C449.183319,771.303772 447.384399,770.569336 446.033051,771.062134 
	C440.997742,772.898560 439.998047,772.369385 439.958557,766.796204 
	C439.886566,756.641418 440.214233,746.471680 439.749176,736.336914 
	C439.510529,731.135864 437.920532,725.996826 436.840820,720.462891 
	C437.806091,720.519104 439.768158,720.877747 439.804016,721.375061 
	C440.419281,729.912170 440.830231,738.464844 441.216187,747.017273 
	C441.554169,754.507080 441.805450,762.000793 442.112671,769.949768 
	C446.840210,769.010681 451.098175,767.672729 453.518921,772.581238 
	C455.344299,770.744751 458.602936,769.013184 458.746307,767.053650 
	C459.358795,758.683472 459.055969,750.246033 459.075989,741.833130 
	C459.079956,740.170837 458.832336,738.481262 459.049591,736.850830 
	C459.870575,730.689087 459.960327,724.871216 453.193237,721.206482 
	C460.452545,722.664551 460.951355,723.267273 460.948181,730.349304 
	C460.942871,742.124390 460.822327,753.901306 461.000580,765.673645 
	C461.071320,770.345825 460.061035,773.767395 454.966431,775.056213 
	C454.068939,775.283264 453.568481,777.079590 452.937866,778.544556 
	C449.504181,779.252686 446.017273,779.567505 442.121765,779.822510 
z"/>
<path fill="#1F543D" opacity="1.000000" stroke="none" 
	d="
M544.921143,343.772400 
	C515.029602,326.340851 481.909729,316.615662 449.015747,305.472504 
	C452.788879,305.823822 456.897430,306.080811 460.772522,307.169159 
	C469.604584,309.649811 478.398376,312.319580 487.058197,315.341064 
	C492.426819,317.214264 497.381195,320.297943 502.772827,322.076569 
	C510.372406,324.583588 517.390930,328.813263 524.729492,331.094604 
	C531.256958,333.123840 535.702332,338.047028 541.993347,339.808899 
	C543.213135,340.150513 543.965149,342.162262 544.921143,343.772400 
z"/>
<path fill="#124832" opacity="1.000000" stroke="none" 
	d="
M239.060135,769.022461 
	C239.060135,769.022461 239.097244,769.512146 238.721512,769.869751 
	C236.210846,771.661621 233.922775,772.919434 231.995682,774.593018 
	C230.746857,775.677612 230.025345,777.369385 229.067566,778.789185 
	C227.629425,779.153748 226.189819,779.512756 224.753632,779.884949 
	C223.812790,780.128723 222.873718,780.623474 221.939240,780.610718 
	C210.133942,780.450134 198.325424,780.329956 186.529099,779.892883 
	C184.557556,779.819885 182.639954,778.291260 180.697388,777.435181 
	C182.332962,775.736145 183.664902,773.264648 185.660080,772.480286 
	C192.075241,769.958374 192.973114,767.834412 189.248642,761.686096 
	C188.824371,760.985718 188.380417,760.260742 188.147964,759.486389 
	C185.980103,752.264282 184.922653,751.141846 177.686966,751.088989 
	C169.915085,751.032166 162.139313,751.506409 153.980911,751.698364 
	C154.518295,750.975525 155.433304,749.730164 156.362762,749.719238 
	C165.839401,749.608643 175.320694,749.607544 184.793701,749.849304 
	C185.964142,749.879211 187.629517,751.264526 188.144974,752.429199 
	C189.885910,756.362732 191.244873,760.468201 192.689453,764.529419 
	C195.022171,771.087646 194.075546,772.911072 187.231140,773.960327 
	C184.219055,774.422180 182.963776,775.447571 184.119339,778.728027 
	C197.112686,778.728027 210.198792,778.728027 223.422379,778.728027 
	C224.321304,774.936462 221.594894,774.381653 218.773254,773.409546 
	C220.764740,773.558594 223.160721,774.669617 225.245041,774.246277 
	C228.586014,773.567566 231.736847,771.911804 234.931274,770.580750 
	C235.768631,770.231873 236.470490,769.557800 237.873001,769.018677 
	C238.694336,769.010315 238.877243,769.016418 239.060135,769.022461 
z"/>
<path fill="#1F543D" opacity="1.000000" stroke="none" 
	d="
M705.343018,320.991699 
	C716.250244,311.533997 729.646240,307.829102 743.997925,306.955658 
	C748.869324,306.659210 753.773926,306.908691 758.663391,306.908691 
	C758.802856,306.500366 758.942383,306.092072 759.081848,305.683746 
	C752.540710,302.338989 745.999512,298.994232 739.241089,295.388611 
	C739.748108,294.846497 740.602234,294.161987 741.176453,294.346893 
	C746.484680,296.056183 752.008118,297.412231 756.893555,299.969971 
	C758.952515,301.047882 759.636169,304.752808 760.945007,307.263580 
	C758.725647,307.979370 756.536682,309.175262 754.281128,309.317810 
	C748.335266,309.693542 742.220825,308.840546 736.429321,309.889435 
	C727.274780,311.547272 718.240295,314.073395 710.434204,319.680115 
	C709.192505,320.571991 707.318237,320.583313 705.343018,320.991699 
z"/>
<path fill="#1F543D" opacity="1.000000" stroke="none" 
	d="
M688.985352,256.620087 
	C668.391541,248.186508 648.086853,249.179291 628.116577,259.041809 
	C625.012939,260.574554 622.104980,262.503540 618.775024,264.353638 
	C619.408630,263.021027 620.051147,260.895630 621.394592,260.266052 
	C627.278809,257.508514 633.336365,255.108383 639.393372,252.737991 
	C642.010742,251.713715 644.738647,250.874832 647.490356,250.317322 
	C650.352478,249.737457 653.302673,249.341766 656.216675,249.327026 
	C660.674011,249.304504 665.187317,249.316284 669.578552,249.972046 
	C675.445679,250.848206 681.239197,252.271042 687.008911,253.685089 
	C687.820923,253.884079 688.319031,255.363358 688.985352,256.620087 
z"/>
<path fill="#124832" opacity="1.000000" stroke="none" 
	d="
M136.760925,769.067322 
	C135.251907,770.478577 133.523743,772.410278 131.391129,773.110840 
	C128.457672,774.074402 127.182938,775.367004 128.374069,778.952087 
	C133.029221,778.952087 137.947479,778.952148 142.865738,778.952148 
	C147.661636,778.952148 152.457520,778.952087 157.314240,778.952087 
	C158.815735,775.748169 157.252869,774.766724 154.614868,774.067383 
	C147.524796,772.187927 146.863922,770.960632 149.075668,763.901001 
	C150.309494,759.962708 151.774078,756.096741 153.377014,751.925415 
	C152.954178,755.793823 153.190918,760.386475 151.399841,763.963928 
	C149.062759,768.631958 151.232544,770.110413 154.525162,772.068970 
	C156.755875,773.395813 160.547348,775.482971 160.381409,776.827942 
	C159.857574,781.073486 155.704636,779.897644 152.710571,779.986389 
	C144.767487,780.221802 136.820419,780.445557 128.876221,780.407227 
	C127.452377,780.400330 125.647095,779.420898 124.771889,778.301147 
	C124.309837,777.710022 125.083633,775.236511 125.973305,774.668701 
	C129.284729,772.555115 132.875519,770.879089 136.760925,769.067322 
z"/>
<path fill="#0A422A" opacity="1.000000" stroke="none" 
	d="
M767.030518,771.552612 
	C763.048706,772.711853 762.904114,769.894043 762.888611,767.108521 
	C762.831238,756.824219 762.397766,746.518799 762.894714,736.259460 
	C763.968811,714.083191 748.127502,710.602966 731.692200,713.926697 
	C730.405334,714.186951 729.173950,714.721741 727.525452,715.182373 
	C729.533630,713.881409 731.950134,711.356384 734.329346,711.391052 
	C741.583069,711.496887 748.856201,712.356995 756.051086,713.408142 
	C759.051147,713.846436 764.532532,724.725525 764.465332,728.175110 
	C764.222168,740.651917 764.032166,753.133240 764.149170,765.609802 
	C764.166565,767.463074 765.940613,769.299866 767.030518,771.552612 
z"/>
<path fill="#0A422A" opacity="1.000000" stroke="none" 
	d="
M239.222656,768.976501 
	C238.877243,769.016418 238.694336,769.010315 238.236816,768.990540 
	C237.974106,746.999390 237.962830,725.021851 238.038605,703.044556 
	C238.045166,701.141602 238.626495,699.240601 239.361771,697.622925 
	C239.762558,721.573975 239.742386,745.240845 239.722229,768.907654 
	C239.722229,768.907654 239.385178,768.930542 239.222656,768.976501 
z"/>
<path fill="#124832" opacity="1.000000" stroke="none" 
	d="
M218.000946,772.567871 
	C215.789963,770.226685 212.731735,767.846924 211.506531,764.743591 
	C205.297684,749.016541 199.564835,733.101624 193.566986,716.901550 
	C195.819565,715.757568 196.360703,716.846863 197.097427,719.046631 
	C199.896637,727.404907 203.145706,735.611633 206.170593,743.895508 
	C207.455856,747.415344 208.341324,751.103516 209.873535,754.505676 
	C212.210541,759.694824 214.974136,764.690857 217.494461,769.799561 
	C217.844269,770.508728 217.839615,771.392639 218.000946,772.567871 
z"/>
<path fill="#1F543D" opacity="1.000000" stroke="none" 
	d="
M849.483948,760.030396 
	C845.728699,754.333008 844.102173,747.674683 844.776855,741.570374 
	C858.336121,741.570374 871.897339,741.570374 886.035034,741.570374 
	C886.035034,739.753784 886.035034,737.820190 886.124512,735.445129 
	C889.806946,736.304504 888.439453,738.880432 887.131165,740.591797 
	C885.953735,742.131897 883.784302,743.879456 882.057007,743.874756 
	C871.764160,743.846863 861.471680,743.362732 851.181152,742.976746 
	C846.986206,742.819336 845.226501,744.302490 846.648010,748.689758 
	C847.811646,752.281067 848.625671,755.985657 849.483948,760.030396 
z"/>
<path fill="#1F543D" opacity="1.000000" stroke="none" 
	d="
M600.796631,280.127136 
	C593.661499,293.665100 586.178284,307.230713 578.393433,320.958923 
	C576.707336,314.711060 582.655090,311.260132 584.219971,306.028717 
	C584.530945,304.989227 585.941528,304.073151 585.882751,303.162262 
	C585.530884,297.709320 588.869507,294.232330 592.083862,290.606812 
	C592.722107,289.886902 593.443237,288.846222 593.404907,287.985596 
	C593.181396,282.972900 597.184814,281.927307 600.796631,280.127136 
z"/>
<path fill="#1F543D" opacity="1.000000" stroke="none" 
	d="
M448.802124,304.864624 
	C432.957733,300.093811 417.070557,294.959442 400.953369,289.550690 
	C405.568390,290.276550 410.517700,290.929962 415.237427,292.347595 
	C425.804840,295.521729 436.267059,299.049042 446.739868,302.529510 
	C447.542786,302.796356 448.092163,303.826019 448.802124,304.864624 
z"/>
<path fill="#0A422A" opacity="1.000000" stroke="none" 
	d="
M522.968018,773.721558 
	C519.160889,773.192444 518.257446,770.441589 518.280518,766.950012 
	C518.346497,756.968628 518.339355,746.986694 518.340149,737.004944 
	C518.340637,730.421753 517.540466,724.057983 512.978149,718.412720 
	C514.169067,718.811279 516.373718,719.295349 516.652100,720.308655 
	C518.045837,725.381165 519.450012,730.550659 519.871826,735.765259 
	C520.406006,742.369385 519.980530,749.049927 520.000061,755.697388 
	C520.017822,761.736145 519.128174,767.934631 522.968018,773.721558 
z"/>
<path fill="#124832" opacity="1.000000" stroke="none" 
	d="
M190.877365,708.778320 
	C188.027527,701.952820 185.327530,694.653748 182.338226,687.475098 
	C181.645096,685.810608 179.609970,683.150269 178.799454,683.354736 
	C174.995117,684.314453 169.711594,682.231201 167.891205,688.016174 
	C166.747452,691.650818 165.306961,695.192139 163.812378,699.076355 
	C164.946960,694.233826 165.111420,688.248779 168.015137,684.255493 
	C169.820557,681.772644 175.873444,681.411316 179.823639,681.853271 
	C181.870956,682.082336 184.219193,685.870056 185.160141,688.504150 
	C187.472992,694.978821 189.049332,701.716614 190.877365,708.778320 
z"/>
<path fill="#124832" opacity="1.000000" stroke="none" 
	d="
M336.829712,769.290039 
	C336.187225,767.847656 335.062164,765.989990 335.053741,764.127258 
	C334.928223,736.420898 334.950470,708.713745 334.914398,680.546143 
	C335.579712,681.199036 336.877686,682.318909 336.866516,683.425476 
	C336.673920,702.487305 336.178497,721.546692 336.061401,740.608459 
	C336.003571,750.027771 336.578094,759.451050 336.829712,769.290039 
z"/>
<path fill="#1F543D" opacity="1.000000" stroke="none" 
	d="
M577.756775,321.108093 
	C573.214294,327.194458 568.301025,333.308167 563.260498,339.580200 
	C565.115784,341.010162 567.576355,342.906738 570.242981,345.048584 
	C565.990723,346.234314 563.326782,343.435272 561.274109,340.312256 
	C559.956604,338.307739 563.934814,331.938721 566.628418,330.041321 
	C568.761047,328.539124 570.360779,326.302673 572.366272,324.590363 
	C573.902710,323.278473 575.703003,322.275696 577.756775,321.108093 
z"/>
<path fill="#124832" opacity="1.000000" stroke="none" 
	d="
M161.109222,705.356018 
	C156.274765,719.753723 151.110657,734.272095 145.751968,749.085449 
	C145.793747,746.819214 145.575851,744.111450 146.346680,741.722595 
	C149.356628,732.394592 152.538712,723.115051 155.966461,713.933044 
	C157.086273,710.933350 159.148422,708.285461 161.109222,705.356018 
z"/>
<path fill="#0A422A" opacity="1.000000" stroke="none" 
	d="
M256.408478,768.686096 
	C256.020020,766.745972 255.708817,764.452087 255.702484,762.157471 
	C255.627731,735.132080 255.598663,708.106506 255.534546,680.628174 
	C256.010498,681.477966 256.941559,682.779358 256.944824,684.083191 
	C257.013947,711.682739 256.980316,739.282532 256.949768,766.882324 
	C256.949219,767.365662 256.739502,767.848816 256.408478,768.686096 
z"/>
<path fill="#1F543D" opacity="1.000000" stroke="none" 
	d="
M880.923584,761.102600 
	C871.695923,770.673950 858.196594,770.710022 849.658203,760.908936 
	C851.933594,761.566162 854.688354,762.065002 856.724243,763.549561 
	C862.259460,767.586121 867.687073,765.595276 873.172607,763.883606 
	C875.671021,763.104187 878.077393,762.029846 880.923584,761.102600 
z"/>
<path fill="#EAF8EF" opacity="1.000000" stroke="none" 
	d="
M229.390503,778.847900 
	C230.025345,777.369385 230.746857,775.677612 231.995682,774.593018 
	C233.922775,772.919434 236.210846,771.661621 238.670868,770.109985 
	C240.676163,775.549316 234.391739,773.923157 232.606979,777.198608 
	C233.996002,777.496826 235.151642,777.946106 236.312637,777.960449 
	C242.245239,778.033569 248.202103,778.294434 254.101303,777.844543 
	C256.412445,777.668335 258.595337,775.810547 260.937561,774.373413 
	C263.104218,775.042480 266.682770,775.254822 262.852173,778.993896 
	C251.698212,779.066284 241.348953,779.112854 230.999695,779.159424 
	C230.570953,779.075195 230.142212,778.990967 229.390503,778.847900 
z"/>
<path fill="#1F543D" opacity="1.000000" stroke="none" 
	d="
M338.147614,353.177979 
	C346.039154,358.272217 353.948029,363.729706 362.058655,369.458771 
	C355.837860,368.164185 349.084015,367.465759 344.891449,361.136475 
	C343.042053,358.344543 340.430481,356.057495 338.147614,353.177979 
z"/>
<path fill="#0A422A" opacity="1.000000" stroke="none" 
	d="
M595.081787,771.775574 
	C593.283325,771.705627 591.517395,770.788940 590.193237,771.222290 
	C585.261597,772.836182 584.029419,772.144836 583.987671,766.746277 
	C583.905762,756.156555 584.061951,745.562439 583.799011,734.978027 
	C583.706116,731.237854 582.678223,727.520996 582.065186,723.398499 
	C583.039307,725.780762 584.786316,728.533569 584.876099,731.339478 
	C585.215515,741.953979 585.150330,752.588074 584.954285,763.209656 
	C584.876770,767.406250 586.106750,769.347046 590.612610,769.155945 
	C592.144165,769.090881 593.746887,770.702881 595.081787,771.775574 
z"/>
<path fill="#EAF8EF" opacity="1.000000" stroke="none" 
	d="
M240.038300,768.637329 
	C239.742386,745.240845 239.762558,721.573975 239.696655,697.442322 
	C239.654984,696.541687 239.699371,696.105896 239.755920,695.117554 
	C239.793106,694.394592 239.818085,694.224182 239.843048,694.053772 
	C240.228439,695.268127 240.946625,696.481628 240.949951,697.697021 
	C241.012421,720.466064 240.996338,743.235413 240.958862,766.004578 
	C240.957581,766.792358 240.564728,767.579529 240.038300,768.637329 
z"/>
<path fill="#0A422A" opacity="1.000000" stroke="none" 
	d="
M378.778992,774.278809 
	C375.020325,773.805420 373.742249,771.411011 373.778931,767.518799 
	C373.944153,749.992065 373.882690,732.463196 373.994263,714.475342 
	C374.688477,715.439514 375.826691,716.868774 375.812225,718.286316 
	C375.651825,734.016541 375.126984,749.745667 375.194244,765.473022 
	C375.206268,768.289429 377.466461,771.096191 378.778992,774.278809 
z"/>
<path fill="#1F543D" opacity="1.000000" stroke="none" 
	d="
M721.010864,287.733643 
	C718.187744,284.206421 715.533936,280.255798 712.584534,276.539856 
	C710.219360,273.560181 707.495605,270.865143 704.766357,267.761078 
	C707.427734,265.667908 709.594971,267.338898 711.014160,269.320740 
	C714.442871,274.108826 717.544312,279.137177 720.628601,284.160217 
	C721.150574,285.010284 720.930115,286.316254 721.010864,287.733643 
z"/>
<path fill="#0A422A" opacity="1.000000" stroke="none" 
	d="
M393.042175,777.315186 
	C401.945007,781.125793 410.832672,781.541870 420.001709,776.609985 
	C419.406342,777.912354 418.589661,780.542358 417.565765,780.625671 
	C411.197998,781.143738 404.771423,781.356873 398.392822,781.059814 
	C396.564453,780.974731 394.830261,778.866943 393.042175,777.315186 
z"/>
<path fill="#0A422A" opacity="1.000000" stroke="none" 
	d="
M682.619141,416.141724 
	C682.558716,400.700043 682.792542,385.320923 683.119873,369.482361 
	C683.475159,370.802032 683.954529,372.580017 683.963684,374.360474 
	C684.028076,386.859467 684.030640,399.359222 683.946350,411.857971 
	C683.936584,413.309021 683.273682,414.755646 682.619141,416.141724 
z"/>
<path fill="#0A422A" opacity="1.000000" stroke="none" 
	d="
M392.112366,753.100952 
	C385.993591,762.719177 386.055420,769.712402 392.891418,776.663513 
	C388.937164,776.997253 387.233124,774.769897 386.981659,770.827881 
	C386.662933,765.831238 385.065918,760.720276 388.482880,756.161621 
	C389.362152,754.988525 390.625153,754.103149 392.112366,753.100952 
z"/>
<path fill="#1F543D" opacity="1.000000" stroke="none" 
	d="
M379.876282,379.447144 
	C384.084503,380.401031 388.179291,381.705994 392.274078,383.010956 
	C392.154602,383.506378 392.035126,384.001801 391.915680,384.497223 
	C386.334290,383.589020 380.752899,382.680786 375.010681,381.420959 
	C376.487488,380.645660 378.125153,380.221954 379.876282,379.447144 
z"/>
<path fill="#0A422A" opacity="1.000000" stroke="none" 
	d="
M474.930908,711.551392 
	C468.271393,713.603882 461.546051,715.366150 454.415466,717.095581 
	C456.011475,715.900574 457.889496,714.366760 460.039703,713.653931 
	C464.504059,712.173828 469.106171,711.102295 473.678894,709.973022 
	C473.951599,709.905640 474.464172,710.809387 474.930908,711.551392 
z"/>
<path fill="#0A422A" opacity="1.000000" stroke="none" 
	d="
M784.919250,727.154907 
	C785.073181,741.560974 784.930115,756.283813 784.465454,771.354492 
	C784.099060,757.918213 784.041992,744.133972 784.036377,730.349792 
	C784.036011,729.390442 784.418030,728.431030 784.919250,727.154907 
z"/>
<path fill="#124832" opacity="1.000000" stroke="none" 
	d="
M453.129486,779.293152 
	C463.044525,778.980103 473.012634,778.974915 483.438904,778.912415 
	C482.808807,779.562683 481.722229,780.878662 480.631958,780.881714 
	C471.821289,780.906372 463.009705,780.694580 454.199646,780.498596 
	C453.854156,780.490906 453.521332,779.913147 453.129486,779.293152 
z"/>
<path fill="#1F543D" opacity="1.000000" stroke="none" 
	d="
M704.602417,267.040558 
	C699.497559,264.114288 694.464050,260.820312 689.220337,257.258545 
	C696.084656,257.219757 701.424072,260.255951 704.602417,267.040558 
z"/>
<path fill="#124832" opacity="1.000000" stroke="none" 
	d="
M231.195007,779.425720 
	C241.348953,779.112854 251.698212,779.066284 262.506134,779.100037 
	C262.099792,779.764038 261.229126,780.862122 260.370667,780.852661 
	C250.979660,780.749207 241.590424,780.477173 232.201523,780.220947 
	C231.926529,780.213501 231.660522,779.875793 231.195007,779.425720 
z"/>
<path fill="#124832" opacity="1.000000" stroke="none" 
	d="
M143.670929,753.051758 
	C141.948212,758.303101 139.839294,763.567444 137.418121,768.996338 
	C139.165512,763.795532 141.225128,758.430115 143.670929,753.051758 
z"/>
<path fill="#0A422A" opacity="1.000000" stroke="none" 
	d="
M717.942627,721.069824 
	C714.762085,725.570496 712.148315,730.291809 714.837463,736.619507 
	C714.290588,736.648560 713.268982,736.514160 712.869812,735.944031 
	C710.390686,732.402710 713.361572,723.146179 717.942627,721.069824 
z"/>
<path fill="#0A422A" opacity="1.000000" stroke="none" 
	d="
M504.622803,713.154785 
	C498.982025,713.794495 493.171661,714.080811 486.987183,714.503052 
	C490.633362,710.471008 498.135803,709.698242 504.622803,713.154785 
z"/>
<path fill="#0A422A" opacity="1.000000" stroke="none" 
	d="
M427.535248,776.901733 
	C431.253754,780.935730 436.002960,780.702271 441.351685,779.752197 
	C441.752167,780.331238 441.968781,781.311951 441.638977,781.556885 
	C438.467499,783.911743 429.443726,781.135559 427.535248,776.901733 
z"/>
<path fill="#1F543D" opacity="1.000000" stroke="none" 
	d="
M736.868103,293.809570 
	C732.489136,292.560486 728.044067,290.963196 723.309204,289.159515 
	C728.467712,287.844666 732.699768,290.454803 736.868103,293.809570 
z"/>
<path fill="#1F543D" opacity="1.000000" stroke="none" 
	d="
M618.014526,264.395203 
	C615.313599,267.026886 612.227661,269.552917 608.879517,272.265747 
	C609.232605,267.560394 611.914795,265.130981 618.014526,264.395203 
z"/>
<path fill="#1F543D" opacity="1.000000" stroke="none" 
	d="
M886.379211,732.739014 
	C884.739258,729.264038 883.330261,725.541443 881.826538,721.464844 
	C886.151855,723.060181 888.351929,728.192688 886.379211,732.739014 
z"/>
<path fill="#1F543D" opacity="1.000000" stroke="none" 
	d="
M329.434326,344.952911 
	C332.313721,347.140350 335.111420,349.692535 338.044434,352.552704 
	C332.311890,353.769806 331.185944,349.129883 329.434326,344.952911 
z"/>
<path fill="#0A422A" opacity="1.000000" stroke="none" 
	d="
M479.817108,718.059570 
	C478.690063,719.637146 477.266174,720.859680 475.240295,722.598999 
	C475.240295,719.190613 475.240295,716.552734 475.330170,713.479370 
	C476.786804,714.597351 478.153564,716.150940 479.817108,718.059570 
z"/>
<path fill="#1F543D" opacity="1.000000" stroke="none" 
	d="
M608.056946,272.477203 
	C606.199341,275.025116 603.953491,277.434570 601.408936,279.993408 
	C602.038940,276.484680 602.506470,272.439026 608.056946,272.477203 
z"/>
<path fill="#1F543D" opacity="1.000000" stroke="none" 
	d="
M578.063843,353.275696 
	C579.700562,354.677521 581.320679,356.478516 583.017273,358.604309 
	C581.464172,358.929138 579.834534,358.929138 578.047119,358.929138 
	C578.047119,356.913239 578.047119,355.294067 578.063843,353.275696 
z"/>
<path fill="#0A422A" opacity="1.000000" stroke="none" 
	d="
M512.939636,717.741455 
	C510.332001,716.702271 507.745483,715.260498 504.899933,713.585693 
	C508.059113,713.335327 512.020264,712.184814 512.939636,717.741455 
z"/>
<path fill="#0A422A" opacity="1.000000" stroke="none" 
	d="
M420.924957,776.454712 
	C422.146698,774.902771 423.740021,773.487854 425.520233,771.907043 
	C426.127075,773.218811 426.707581,774.473694 427.416565,776.045166 
	C425.462219,776.438477 423.379364,776.515198 420.924957,776.454712 
z"/>
<path fill="#1F543D" opacity="1.000000" stroke="none" 
	d="
M571.695190,346.941772 
	C573.240784,347.819885 574.603577,349.069153 576.084351,350.616028 
	C573.763184,350.854126 570.851379,351.410309 571.695190,346.941772 
z"/>
<path fill="#0A422A" opacity="1.000000" stroke="none" 
	d="
M724.796631,716.110901 
	C723.387939,717.491150 721.560669,718.831543 719.429443,720.340393 
	C719.154968,716.992310 720.989014,715.611511 724.796631,716.110901 
z"/>
<path fill="#1F543D" opacity="1.000000" stroke="none" 
	d="
M362.302124,370.060852 
	C364.045776,370.594360 365.875854,371.494507 367.907623,372.666840 
	C366.202393,372.101837 364.295441,371.264618 362.302124,370.060852 
z"/>
<path fill="#124832" opacity="1.000000" stroke="none" 
	d="
M193.546127,715.999207 
	C192.553909,714.198242 191.702972,712.015747 190.813660,709.470947 
	C191.745972,711.278320 192.716690,713.447998 193.546127,715.999207 
z"/>
<path fill="#0A422A" opacity="1.000000" stroke="none" 
	d="
M773.180115,774.847412 
	C772.926331,773.499634 773.027954,772.112854 772.961548,770.409424 
	C773.751709,770.511536 774.709717,770.930359 775.667786,771.349182 
	C774.957031,772.502258 774.246216,773.655396 773.180115,774.847412 
z"/>
<path fill="#0A422A" opacity="1.000000" stroke="none" 
	d="
M453.007263,717.197571 
	C453.197174,718.164185 453.036316,719.167053 452.990845,720.545715 
	C450.460602,719.996643 450.132751,718.789124 453.007263,717.197571 
z"/>
<path fill="#124832" opacity="1.000000" stroke="none" 
	d="
M163.242737,699.580444 
	C163.028854,701.302490 162.442581,703.074707 161.600357,705.090088 
	C161.853043,703.432312 162.361694,701.531494 163.242737,699.580444 
z"/>
<path fill="#0A422A" opacity="1.000000" stroke="none" 
	d="
M526.200562,777.931641 
	C525.734558,777.376282 525.613342,776.782654 525.452759,775.886841 
	C526.392090,775.734192 527.370667,775.883850 528.349304,776.033447 
	C527.747986,776.653442 527.146729,777.273499 526.200562,777.931641 
z"/>
<path fill="#1F543D" opacity="1.000000" stroke="none" 
	d="
M587.086853,365.245605 
	C587.837585,365.887787 588.558899,366.923370 589.345825,368.272766 
	C588.626709,367.604095 587.842102,366.621521 587.086853,365.245605 
z"/>
<path fill="#1F543D" opacity="1.000000" stroke="none" 
	d="
M585.103394,362.203796 
	C585.764038,362.654846 586.403503,363.466583 587.094849,364.590637 
	C586.458557,364.123444 585.770386,363.343964 585.103394,362.203796 
z"/>
<path fill="#1F543D" opacity="1.000000" stroke="none" 
	d="
M583.067627,359.260742 
	C583.730103,359.695648 584.381470,360.486603 585.096191,361.584595 
	C584.458557,361.133392 583.757568,360.375092 583.067627,359.260742 
z"/>
<path fill="#0A422A" opacity="1.000000" stroke="none" 
	d="
M484.871552,715.148438 
	C484.375305,715.773621 483.514984,716.363831 482.340790,717.014832 
	C482.853790,716.421570 483.680634,715.767578 484.871552,715.148438 
z"/>
<path fill="#0A422A" opacity="1.000000" stroke="none" 
	d="
M770.810181,769.934814 
	C770.363403,770.595154 769.600159,771.127197 768.483398,771.714417 
	C768.917847,771.115234 769.705811,770.460876 770.810181,769.934814 
z"/>
<path fill="#0A422A" opacity="1.000000" stroke="none" 
	d="
M770.879761,776.840820 
	C771.107117,776.257324 771.694214,775.645752 772.586304,774.932251 
	C772.340637,775.491211 771.790039,776.151978 770.879761,776.840820 
z"/>
<path fill="#0A422A" opacity="1.000000" stroke="none" 
	d="
M239.604431,693.924927 
	C239.818085,694.224182 239.793106,694.394592 239.657135,694.798889 
	C239.054947,694.520264 238.563751,694.007751 238.054474,693.209106 
	C238.479538,693.213989 238.922668,693.505005 239.604431,693.924927 
z"/>
<path fill="#0A422A" opacity="1.000000" stroke="none" 
	d="
M481.558929,717.081909 
	C481.284790,717.557800 480.488129,718.080811 479.457123,718.359497 
	C479.827332,717.786499 480.431854,717.457764 481.558929,717.081909 
z"/>
<path fill="#0A422A" opacity="1.000000" stroke="none" 
	d="
M726.906433,715.164307 
	C726.721497,715.485352 726.209961,715.813293 725.385620,716.192505 
	C725.575195,715.886230 726.077515,715.528748 726.906433,715.164307 
z"/>
<path fill="#0A422A" opacity="1.000000" stroke="none" 
	d="
M235.261627,690.899902 
	C235.700851,690.843384 236.292877,691.079773 237.037109,691.600403 
	C236.597687,691.653992 236.006058,691.423401 235.261627,690.899902 
z"/>
<path fill="#124832" opacity="1.000000" stroke="none" 
	d="
M145.298416,749.486206 
	C145.439850,749.844299 145.329895,750.191040 145.055023,750.757385 
	C144.942413,750.476318 144.994720,749.975525 145.298416,749.486206 
z"/>
<path fill="#1F543D" opacity="1.000000" stroke="none" 
	d="
M328.539337,343.826202 
	C328.825562,343.633514 329.071960,343.793121 329.326813,344.271332 
	C329.031860,344.536804 328.753265,344.399658 328.539337,343.826202 
z"/>
<path fill="#1F543D" opacity="1.000000" stroke="none" 
	d="
M570.746216,345.791718 
	C570.797302,345.647614 571.128052,345.792633 571.150269,345.884521 
	C571.172424,345.976379 570.917725,346.138580 570.917725,346.138580 
	C570.917725,346.138580 570.695068,345.935822 570.746216,345.791718 
z"/>
<path fill="#0A422A" opacity="1.000000" stroke="none" 
	d="
M525.409180,775.323975 
	C525.344482,775.463867 525.065613,775.393250 525.025269,775.255249 
	C524.984924,775.117310 525.339172,774.896851 525.339172,774.896851 
	C525.339172,774.896851 525.473816,775.184021 525.409180,775.323975 
z"/>
<path fill="#0A422A" opacity="1.000000" stroke="none" 
	d="
M237.176849,692.037537 
	C237.353928,692.009766 237.643311,692.227478 238.008667,692.719727 
	C237.819473,692.757202 237.554321,692.520142 237.176849,692.037537 
z"/>
<path fill="#1F543D" opacity="1.000000" stroke="none" 
	d="
M577.159668,352.068176 
	C577.349426,352.019348 577.650330,352.220093 578.049438,352.681335 
	C577.855347,352.733826 577.563049,352.525787 577.159668,352.068176 
z"/>
<path fill="#0A422A" opacity="1.000000" stroke="none" 
	d="
M486.188721,714.646851 
	C486.225311,714.939514 485.944427,715.108337 485.366577,715.229248 
	C485.388489,715.047852 485.655670,714.828430 486.188721,714.646851 
z"/>
<path fill="#0B583A" opacity="1.000000" stroke="none" 
	d="
M676.667847,282.914673 
	C683.150513,287.570435 684.629944,292.544495 681.643433,298.506500 
	C679.142700,303.498688 673.886780,306.006958 668.804138,304.633789 
	C662.430542,302.911804 658.984436,296.673584 660.831177,290.200958 
	C662.714600,283.599396 668.848083,280.658264 676.667847,282.914673 
z"/>
<path fill="#1F543D" opacity="1.000000" stroke="none" 
	d="
M583.915771,460.891357 
	C583.750610,461.254791 583.496216,461.505615 583.241821,461.756439 
	C583.217957,461.476837 583.194031,461.197235 583.409668,460.735107 
	C583.649231,460.552551 583.826477,460.778809 583.915771,460.891357 
z"/>
<path fill="#065A3B" opacity="1.000000" stroke="none" 
	d="
M319.775513,763.991455 
	C311.724762,773.112061 297.838776,771.342834 292.150208,760.008118 
	C287.322266,750.388184 287.171631,740.114502 290.798126,730.002014 
	C292.922424,724.078308 297.302063,720.527832 303.792938,719.908752 
	C310.627533,719.256775 316.308014,721.017212 319.657532,728.012939 
	C319.268646,735.742859 319.004730,742.796021 319.040863,749.847656 
	C319.065033,754.563416 319.515717,759.276917 319.775513,763.991455 
z"/>
<path fill="#0A422A" opacity="1.000000" stroke="none" 
	d="
M319.943787,763.548706 
	C319.515717,759.276917 319.065033,754.563416 319.040863,749.847656 
	C319.004730,742.796021 319.268646,735.742859 319.649658,728.359619 
	C319.966949,739.721252 320.039490,751.413574 319.943787,763.548706 
z"/>
<path fill="#0B583A" opacity="1.000000" stroke="none" 
	d="
M157.167068,739.988159 
	C161.417389,727.491943 165.667709,714.995728 169.918045,702.499512 
	C170.264297,702.488342 170.610565,702.477234 170.956833,702.466064 
	C175.371597,714.995422 179.786377,727.524780 183.758896,740.465027 
	C181.164093,740.914978 179.006897,741.063782 176.859863,740.972656 
	C170.293488,740.693970 163.731049,740.323181 157.167068,739.988159 
z"/>
<path fill="#0A422A" opacity="1.000000" stroke="none" 
	d="
M157.028000,740.434570 
	C163.731049,740.323181 170.293488,740.693970 176.859863,740.972656 
	C179.006897,741.063782 181.164093,740.914978 183.800995,740.841553 
	C183.984558,741.275452 183.687256,742.150208 183.382492,742.152771 
	C174.914444,742.225403 166.445480,742.226257 157.977448,742.152283 
	C157.610931,742.149109 157.251602,741.323425 157.028000,740.434570 
z"/>
<path fill="#0B583A" opacity="1.000000" stroke="none" 
	d="
M728.264954,753.314453 
	C734.653503,750.347717 740.780273,747.643860 747.968018,744.471863 
	C747.968018,751.910767 748.419800,757.831543 747.820618,763.643982 
	C747.366638,768.047546 743.386902,769.398682 739.439209,770.138611 
	C734.364929,771.089783 729.656372,770.572449 726.685425,765.854553 
	C724.011963,761.609192 724.372498,757.327576 728.264954,753.314453 
z"/>
<path fill="#0B583A" opacity="1.000000" stroke="none" 
	d="
M561.360901,770.016235 
	C556.519348,770.767944 552.255493,770.579407 548.865295,767.175476 
	C544.750366,763.043762 545.012756,756.143127 550.285583,752.925720 
	C555.821655,749.547668 562.150146,747.468323 568.968384,744.451538 
	C568.968384,751.632507 569.707153,757.541138 568.643372,763.105103 
	C568.143433,765.719849 564.174316,767.671265 561.360901,770.016235 
z"/>
<path fill="#0B583A" opacity="1.000000" stroke="none" 
	d="
M421.080841,768.125549 
	C416.260620,771.170410 411.349670,771.406006 406.261108,767.997925 
	C403.284760,762.915100 405.300751,758.189209 405.486725,753.555237 
	C405.486725,753.555237 405.809082,753.542175 405.941528,753.518982 
	C406.308960,753.201843 406.543945,752.907898 406.778931,752.613953 
	C406.778931,752.613953 406.775146,752.731445 407.097351,752.775146 
	C408.236206,752.141418 409.052887,751.464111 409.869568,750.786743 
	C409.869568,750.786743 409.864441,750.871521 410.146179,750.852600 
	C410.928070,750.487427 411.428223,750.141174 411.928345,749.794861 
	C411.928345,749.794861 411.902771,749.898865 412.281342,749.913513 
	C414.588470,749.627258 416.646912,749.656494 418.419525,748.959167 
	C422.561615,747.329651 424.273987,749.260254 423.877869,752.920532 
	C423.324951,758.029907 422.047974,763.060974 421.080841,768.125549 
z"/>
<path fill="#124832" opacity="1.000000" stroke="none" 
	d="
M421.439758,768.041382 
	C422.047974,763.060974 423.324951,758.029907 423.877869,752.920532 
	C424.273987,749.260254 422.561615,747.329651 418.419525,748.959167 
	C416.646912,749.656494 414.588470,749.627258 412.231812,749.893066 
	C415.985443,748.393372 420.167114,746.928833 425.047699,745.219482 
	C425.047699,751.758301 425.282654,757.524597 424.898682,763.249329 
	C424.789276,764.880615 422.881653,766.391296 421.439758,768.041382 
z"/>
<path fill="#124832" opacity="1.000000" stroke="none" 
	d="
M405.225311,753.780457 
	C405.300751,758.189209 403.284760,762.915100 406.086426,767.677246 
	C401.229767,763.543335 400.946289,759.692322 405.225311,753.780457 
z"/>
<path fill="#124832" opacity="1.000000" stroke="none" 
	d="
M409.551575,750.827942 
	C409.052887,751.464111 408.236206,752.141418 407.042969,752.752808 
	C407.522125,752.080933 408.377869,751.475037 409.551575,750.827942 
z"/>
<path fill="#124832" opacity="1.000000" stroke="none" 
	d="
M411.617249,749.820618 
	C411.428223,750.141174 410.928070,750.487427 410.105865,750.839355 
	C410.291260,750.512085 410.798706,750.179199 411.617249,749.820618 
z"/>
<path fill="#124832" opacity="1.000000" stroke="none" 
	d="
M406.506226,752.683594 
	C406.543945,752.907898 406.308960,753.201843 405.783875,753.535889 
	C405.740356,753.301697 405.986938,753.027466 406.506226,752.683594 
z"/>
<path fill="#0B583A" opacity="1.000000" stroke="none" 
	d="
M867.300781,722.632568 
	C869.714050,726.794067 871.861938,730.693054 874.592834,735.650269 
	C863.511475,735.650269 854.298645,735.650269 844.822815,735.650269 
	C845.429321,729.293701 848.005676,724.137390 853.668457,720.984802 
	C858.324280,718.392944 862.890259,718.908752 867.300781,722.632568 
z"/>
</svg>