<svg xmlns="http://www.w3.org/2000/svg" viewBox="230 180 560 500" width="100%" height="100%">
  <defs>
    <clipPath id="rounded-bg">
      <rect x="230" y="180" width="560" height="500" rx="60" ry="60"/>
    </clipPath>
  </defs>
  <rect x="230" y="180" width="560" height="500" rx="60" ry="60" fill="#0F5F43"/>
  <path fill="#FFFFFF" stroke="none" d="
M704.949524,320.981720 
	C692.093079,331.157501 686.326294,345.079559 683.956177,360.781189 
	C683.585144,363.239136 683.373169,365.721130 683.057007,369.066895 
	C682.792542,385.320923 682.558716,400.700043 682.324829,416.079132 
	C680.044556,442.085480 673.125854,466.671814 660.228760,489.508026 
	C641.169739,523.254883 611.863586,543.661560 575.488770,554.876526 
	C557.052734,560.560730 538.024109,562.328979 518.843933,562.994812 
	C497.838104,563.723938 477.018097,565.996582 456.655243,571.411255 
	C425.845001,579.604126 400.590546,596.195251 381.335449,621.730103 
	C380.243713,623.177856 379.066132,624.560913 377.646576,626.324280 
	C362.198364,607.141785 342.315399,596.278015 317.695374,592.199585 
	C324.777527,587.455444 331.537415,582.115479 339.001709,578.077698 
	C362.250275,565.501526 385.865662,553.604797 409.151306,541.095459 
	C435.959930,526.693604 462.569336,511.920868 489.259094,497.297974 
	C489.914612,496.938873 490.497711,496.447632 492.096161,495.334290 
	C442.544006,497.103455 403.517792,477.442047 371.178345,442.545959 
	C392.664398,450.339478 414.544128,454.163544 437.293488,450.872528 
	C373.385895,437.686859 325.030212,398.492767 309.768402,346.732208 
	C313.350372,349.719788 316.047333,351.913177 318.683563,354.177277 
	C333.449646,366.859100 350.228943,375.683319 369.103455,380.467316 
	C370.685883,380.868408 372.374359,380.850861 374.592560,381.400177 
	C380.752899,382.680786 386.334290,383.589020 391.915680,384.497223 
	C392.035126,384.001801 392.154602,383.506378 392.274078,383.010956 
	C388.179291,381.705994 384.084503,380.401031 379.989716,379.096039 
	C376.262115,377.083130 372.534546,375.070251 368.256439,372.726013 
	C365.875854,371.494507 364.045776,370.594360 362.215698,369.694214 
	C362.215698,369.694214 362.117401,369.861542 361.987152,369.524353 
	C353.948029,363.729706 346.039154,358.272217 338.130280,352.814758 
	C338.130280,352.814758 338.082947,352.915253 337.996033,352.579987 
	C335.111420,349.692535 332.313721,347.140350 329.516022,344.588165 
	C329.516022,344.588165 329.473785,344.521271 329.361328,344.290649 
	C329.071960,343.793121 328.825562,343.633514 328.509674,343.581177 
	C328.509674,343.581177 328.469543,343.537598 328.301086,343.222595 
	C299.879791,312.391144 287.212463,276.190582 288.083191,234.218094 
	C289.519714,234.986359 290.224457,235.343521 290.910736,235.733185 
	C308.813080,245.898224 326.275177,256.964325 344.738617,265.979767 
	C362.882996,274.839417 382.043762,281.617432 400.758514,289.308899 
	C400.758514,289.308899 400.905548,289.114716 401.044495,289.469910 
	C417.070557,294.959442 432.957733,300.093811 448.844879,305.228180 
	C448.844879,305.228180 448.879486,305.112488 449.062317,305.434082 
	C481.909729,316.615662 515.029602,326.340851 544.909302,344.141235 
	C544.909302,344.141235 544.945251,344.051575 545.052979,344.381683 
	C584.074402,368.743866 604.744751,417.290070 583.409668,460.735107 
	C583.194031,461.197235 583.217957,461.476837 583.241821,461.756439 
	C583.496216,461.505615 583.750610,461.254791 584.331299,460.910950 
	C607.995117,432.131744 605.507019,395.975525 589.464783,368.639038 
	C589.464783,368.639038 589.364563,368.687866 589.322388,368.323395 
	C588.558899,366.923370 587.837585,365.887787 587.116211,364.852234 
	C587.116211,364.852234 587.043701,364.930389 587.043335,364.604340 
	C586.403503,363.466583 585.764038,362.654846 585.124512,361.843140 
	C585.124512,361.843140 585.054138,361.930878 585.043518,361.604187 
	C584.381470,360.486603 583.730103,359.695648 583.078674,358.904724 
	C583.078674,358.904724 582.997742,358.972748 582.969238,358.626099 
	C581.320679,356.478516 579.700562,354.677521 578.080505,352.876526 
	C578.080505,352.876526 578.072083,352.952362 578.011658,352.686584 
	C577.650330,352.220093 577.349426,352.019348 577.048584,351.818604 
	C577.035461,351.494263 576.895447,351.239746 576.297485,350.686707 
	C574.603577,349.069153 573.240784,347.819885 571.877991,346.570618 
	C571.801941,346.422180 571.725952,346.273743 571.389038,345.958984 
	C571.128052,345.792633 570.797302,345.647614 570.797302,345.647614 
	C570.797302,345.647614 570.732300,345.363312 570.384644,345.083313 
	C567.576355,342.906738 565.115784,341.010162 563.260498,339.580200 
	C568.301025,333.308167 573.214294,327.194458 578.127563,321.080750 
	C578.127563,321.080750 578.036255,321.036713 578.365662,320.916504 
	C586.178284,307.230713 593.661499,293.665100 601.144714,280.099487 
	C601.144714,280.099487 601.042725,280.053680 601.375183,279.948853 
	C603.953491,277.434570 606.199341,275.025116 608.445190,272.615662 
	C608.445190,272.615662 608.565796,272.570587 608.853760,272.324768 
	C612.227661,269.552917 615.313599,267.026886 618.399536,264.500854 
	C618.399536,264.500854 618.269287,264.323090 618.687927,264.286194 
	C622.104980,262.503540 625.012939,260.574554 628.116577,259.041809 
	C648.086853,249.179291 668.391541,248.186508 689.008301,256.990143 
	C689.008301,256.990143 689.000000,257.000000 689.215332,257.263184 
	C694.464050,260.820312 699.497559,264.114288 704.531006,267.408264 
	C704.531006,267.408264 704.569031,267.440491 704.750000,267.742126 
	C707.495605,270.865143 710.219360,273.560181 712.584534,276.539856 
	C715.533936,280.255798 718.187744,284.206421 720.969177,288.055725 
	C721.453369,288.356812 721.937500,288.657898 723.010376,289.162415 
	C728.044067,290.963196 732.489136,292.560486 736.934143,294.157806 
	C737.429260,294.465454 737.924438,294.773102 738.938965,295.365112 
	C745.999512,298.994232 752.540710,302.338989 759.081848,305.683746 
	C758.942383,306.092072 758.802856,306.500366 758.663391,306.908691 
	C753.773926,306.908691 748.869324,306.659210 743.997925,306.955658 
	C729.646240,307.829102 716.250244,311.533997 704.949524,320.981720 
M676.291870,282.787170 
	C668.848083,280.658264 662.714600,283.599396 660.831177,290.200958 
	C658.984436,296.673584 662.430542,302.911804 668.804138,304.633789 
	C673.886780,306.006958 679.142700,303.498688 681.643433,298.506500 
	C684.629944,292.544495 683.150513,287.570435 676.291870,282.787170 
z"/>
</svg>
